  0
SECTION
  2
HEADER
  9
$ACADVER
  1
AC1024
  9
$ACADMAINTVER
 70
6
  9
$DWGCODEPAGE
  3
ANSI_1252
  9
$LASTSAVEDBY
  1
ezdxf
  9
$INSBASE
 10
0.0
 20
0.0
 30
0.0
  9
$EXTMIN
 10
1e+20
 20
1e+20
 30
1e+20
  9
$EXTMAX
 10
-1e+20
 20
-1e+20
 30
-1e+20
  9
$LIMMIN
 10
0.0
 20
0.0
  9
$LIMMAX
 10
420.0
 20
297.0
  9
$ORTHOMODE
 70
0
  9
$REGENMODE
 70
1
  9
$FILLMODE
 70
1
  9
$QTEXTMODE
 70
0
  9
$MIRRTEXT
 70
1
  9
$LTSCALE
 40
1.0
  9
$ATTMODE
 70
1
  9
$TEXTSIZE
 40
2.5
  9
$TRACEWID
 40
1.0
  9
$TEXTSTYLE
  7
Standard
  9
$CLAYER
  8
0
  9
$CELTYPE
  6
ByLayer
  9
$CECOLOR
 62
256
  9
$CELTSCALE
 40
1.0
  9
$DISPSILH
 70
0
  9
$DIMSCALE
 40
1.0
  9
$DIMASZ
 40
2.5
  9
$DIMEXO
 40
0.625
  9
$DIMDLI
 40
3.75
  9
$DIMRND
 40
0.0
  9
$DIMDLE
 40
0.0
  9
$DIMEXE
 40
1.25
  9
$DIMTP
 40
0.0
  9
$DIMTM
 40
0.0
  9
$DIMTXT
 40
2.5
  9
$DIMCEN
 40
2.5
  9
$DIMTSZ
 40
0.0
  9
$DIMTOL
 70
0
  9
$DIMLIM
 70
0
  9
$DIMTIH
 70
0
  9
$DIMTOH
 70
0
  9
$DIMSE1
 70
0
  9
$DIMSE2
 70
0
  9
$DIMTAD
 70
1
  9
$DIMZIN
 70
8
  9
$DIMBLK
  1

  9
$DIMASO
 70
1
  9
$DIMSHO
 70
1
  9
$DIMPOST
  1

  9
$DIMAPOST
  1

  9
$DIMALT
 70
0
  9
$DIMALTD
 70
3
  9
$DIMALTF
 40
0.03937007874
  9
$DIMLFAC
 40
1.0
  9
$DIMTOFL
 70
1
  9
$DIMTVP
 40
0.0
  9
$DIMTIX
 70
0
  9
$DIMSOXD
 70
0
  9
$DIMSAH
 70
0
  9
$DIMBLK1
  1

  9
$DIMBLK2
  1

  9
$DIMSTYLE
  2
ISO-25
  9
$DIMCLRD
 70
0
  9
$DIMCLRE
 70
0
  9
$DIMCLRT
 70
0
  9
$DIMTFAC
 40
1.0
  9
$DIMGAP
 40
0.625
  9
$DIMJUST
 70
0
  9
$DIMSD1
 70
0
  9
$DIMSD2
 70
0
  9
$DIMTOLJ
 70
0
  9
$DIMTZIN
 70
8
  9
$DIMALTZ
 70
0
  9
$DIMALTTZ
 70
0
  9
$DIMUPT
 70
0
  9
$DIMDEC
 70
2
  9
$DIMTDEC
 70
2
  9
$DIMALTU
 70
2
  9
$DIMALTTD
 70
3
  9
$DIMTXSTY
  7
Standard
  9
$DIMAUNIT
 70
0
  9
$DIMADEC
 70
0
  9
$DIMALTRND
 40
0.0
  9
$DIMAZIN
 70
0
  9
$DIMDSEP
 70
44
  9
$DIMATFIT
 70
3
  9
$DIMFRAC
 70
0
  9
$DIMLDRBLK
  1

  9
$DIMLUNIT
 70
2
  9
$DIMLWD
 70
-2
  9
$DIMLWE
 70
-2
  9
$DIMTMOVE
 70
0
  9
$DIMFXL
 40
1.0
  9
$DIMFXLON
 70
0
  9
$DIMJOGANG
 40
0.785398163397
  9
$DIMTFILL
 70
0
  9
$DIMTFILLCLR
 70
0
  9
$DIMARCSYM
 70
0
  9
$DIMLTYPE
  6

  9
$DIMLTEX1
  6

  9
$DIMLTEX2
  6

  9
$DIMTXTDIRECTION
 70
0
  9
$LUNITS
 70
2
  9
$LUPREC
 70
4
  9
$SKETCHINC
 40
1.0
  9
$FILLETRAD
 40
10.0
  9
$AUNITS
 70
0
  9
$AUPREC
 70
2
  9
$MENU
  1
.
  9
$ELEVATION
 40
0.0
  9
$PELEVATION
 40
0.0
  9
$THICKNESS
 40
0.0
  9
$LIMCHECK
 70
0
  9
$CHAMFERA
 40
0.0
  9
$CHAMFERB
 40
0.0
  9
$CHAMFERC
 40
0.0
  9
$CHAMFERD
 40
0.0
  9
$SKPOLY
 70
0
  9
$TDCREATE
 40
2461029.398125
  9
$TDUCREATE
 40
2458532.153996898
  9
$TDUPDATE
 40
2461029.398125
  9
$TDUUPDATE
 40
2458532.1544311
  9
$TDINDWG
 40
0.0
  9
$TDUSRTIMER
 40
0.0
  9
$USRTIMER
 70
1
  9
$ANGBASE
 50
0.0
  9
$ANGDIR
 70
0
  9
$PDMODE
 70
0
  9
$PDSIZE
 40
0.0
  9
$PLINEWID
 40
0.0
  9
$SPLFRAME
 70
0
  9
$SPLINETYPE
 70
6
  9
$SPLINESEGS
 70
8
  9
$HANDSEED
  5
42
  9
$SURFTAB1
 70
6
  9
$SURFTAB2
 70
6
  9
$SURFTYPE
 70
6
  9
$SURFU
 70
6
  9
$SURFV
 70
6
  9
$UCSBASE
  2

  9
$UCSNAME
  2

  9
$UCSORG
 10
0.0
 20
0.0
 30
0.0
  9
$UCSXDIR
 10
1.0
 20
0.0
 30
0.0
  9
$UCSYDIR
 10
0.0
 20
1.0
 30
0.0
  9
$UCSORTHOREF
  2

  9
$UCSORTHOVIEW
 70
0
  9
$UCSORGTOP
 10
0.0
 20
0.0
 30
0.0
  9
$UCSORGBOTTOM
 10
0.0
 20
0.0
 30
0.0
  9
$UCSORGLEFT
 10
0.0
 20
0.0
 30
0.0
  9
$UCSORGRIGHT
 10
0.0
 20
0.0
 30
0.0
  9
$UCSORGFRONT
 10
0.0
 20
0.0
 30
0.0
  9
$UCSORGBACK
 10
0.0
 20
0.0
 30
0.0
  9
$PUCSBASE
  2

  9
$PUCSNAME
  2

  9
$PUCSORG
 10
0.0
 20
0.0
 30
0.0
  9
$PUCSXDIR
 10
1.0
 20
0.0
 30
0.0
  9
$PUCSYDIR
 10
0.0
 20
1.0
 30
0.0
  9
$PUCSORTHOREF
  2

  9
$PUCSORTHOVIEW
 70
0
  9
$PUCSORGTOP
 10
0.0
 20
0.0
 30
0.0
  9
$PUCSORGBOTTOM
 10
0.0
 20
0.0
 30
0.0
  9
$PUCSORGLEFT
 10
0.0
 20
0.0
 30
0.0
  9
$PUCSORGRIGHT
 10
0.0
 20
0.0
 30
0.0
  9
$PUCSORGFRONT
 10
0.0
 20
0.0
 30
0.0
  9
$PUCSORGBACK
 10
0.0
 20
0.0
 30
0.0
  9
$USERI1
 70
0
  9
$USERI2
 70
0
  9
$USERI3
 70
0
  9
$USERI4
 70
0
  9
$USERI5
 70
0
  9
$USERR1
 40
0.0
  9
$USERR2
 40
0.0
  9
$USERR3
 40
0.0
  9
$USERR4
 40
0.0
  9
$USERR5
 40
0.0
  9
$WORLDVIEW
 70
1
  9
$SHADEDGE
 70
3
  9
$SHADEDIF
 70
70
  9
$TILEMODE
 70
1
  9
$MAXACTVP
 70
64
  9
$PINSBASE
 10
0.0
 20
0.0
 30
0.0
  9
$PLIMCHECK
 70
0
  9
$PEXTMIN
 10
1e+20
 20
1e+20
 30
1e+20
  9
$PEXTMAX
 10
-1e+20
 20
-1e+20
 30
-1e+20
  9
$PLIMMIN
 10
0.0
 20
0.0
  9
$PLIMMAX
 10
420.0
 20
297.0
  9
$UNITMODE
 70
0
  9
$VISRETAIN
 70
1
  9
$PLINEGEN
 70
0
  9
$PSLTSCALE
 70
1
  9
$TREEDEPTH
 70
3020
  9
$CMLSTYLE
  2
Standard
  9
$CMLJUST
 70
0
  9
$CMLSCALE
 40
20.0
  9
$PROXYGRAPHICS
 70
1
  9
$MEASUREMENT
 70
1
  9
$CELWEIGHT
370
-1
  9
$ENDCAPS
280
0
  9
$JOINSTYLE
280
0
  9
$LWDISPLAY
290
0
  9
$INSUNITS
 70
4
  9
$HYPERLINKBASE
  1

  9
$STYLESHEET
  1

  9
$XEDIT
290
1
  9
$CEPSNTYPE
380
0
  9
$PSTYLEMODE
290
1
  9
$FINGERPRINTGUID
  2
{2A1AB15F-10A4-4C2F-AEB9-0D8BA8979A4D}
  9
$VERSIONGUID
  2
{0CF8DCD9-2BFA-413A-A6E8-B674E3F14B39}
  9
$EXTNAMES
290
1
  9
$PSVPSCALE
 40
0.0
  9
$OLESTARTUP
290
0
  9
$SORTENTS
280
127
  9
$INDEXCTL
280
0
  9
$HIDETEXT
280
1
  9
$XCLIPFRAME
280
1
  9
$HALOGAP
280
0
  9
$OBSCOLOR
 70
257
  9
$OBSLTYPE
280
0
  9
$INTERSECTIONDISPLAY
280
0
  9
$INTERSECTIONCOLOR
 70
257
  9
$DIMASSOC
280
2
  9
$PROJECTNAME
  1

  9
$CAMERADISPLAY
290
0
  9
$LENSLENGTH
 40
50.0
  9
$CAMERAHEIGHT
 40
0.0
  9
$STEPSPERSEC
 40
24.0
  9
$STEPSIZE
 40
100.0
  9
$3DDWFPREC
 40
2.0
  9
$PSOLWIDTH
 40
0.005
  9
$PSOLHEIGHT
 40
0.08
  9
$LOFTANG1
 40
1.570796326795
  9
$LOFTANG2
 40
1.570796326795
  9
$LOFTMAG1
 40
0.0
  9
$LOFTMAG2
 40
0.0
  9
$LOFTPARAM
 70
7
  9
$LOFTNORMALS
280
1
  9
$LATITUDE
 40
37.795
  9
$LONGITUDE
 40
-122.394
  9
$NORTHDIRECTION
 40
0.0
  9
$TIMEZONE
 70
-8000
  9
$LIGHTGLYPHDISPLAY
280
1
  9
$TILEMODELIGHTSYNCH
280
1
  9
$CMATERIAL
347
20
  9
$SOLIDHIST
280
0
  9
$SHOWHIST
280
1
  9
$DWFFRAME
280
2
  9
$DGNFRAME
280
2
  9
$REALWORLDSCALE
290
1
  9
$INTERFERECOLOR
 62
256
  9
$CSHADOW
280
0
  9
$SHADOWPLANELOCATION
 40
0.0
  0
ENDSEC
  0
SECTION
  2
CLASSES
  0
CLASS
  1
ACDBDICTIONARYWDFLT
  2
AcDbDictionaryWithDefault
  3
ObjectDBX Classes
 90
0
 91
0
280
0
281
0
  0
CLASS
  1
SUN
  2
AcDbSun
  3
SCENEOE
 90
1153
 91
0
280
0
281
0
  0
CLASS
  1
VISUALSTYLE
  2
AcDbVisualStyle
  3
ObjectDBX Classes
 90
4095
 91
0
280
0
281
0
  0
CLASS
  1
MATERIAL
  2
AcDbMaterial
  3
ObjectDBX Classes
 90
1153
 91
0
280
0
281
0
  0
CLASS
  1
SCALE
  2
AcDbScale
  3
ObjectDBX Classes
 90
1153
 91
0
280
0
281
0
  0
CLASS
  1
TABLESTYLE
  2
AcDbTableStyle
  3
ObjectDBX Classes
 90
4095
 91
0
280
0
281
0
  0
CLASS
  1
MLEADERSTYLE
  2
AcDbMLeaderStyle
  3
ACDB_MLEADERSTYLE_CLASS
 90
4095
 91
0
280
0
281
0
  0
CLASS
  1
DICTIONARYVAR
  2
AcDbDictionaryVar
  3
ObjectDBX Classes
 90
0
 91
0
280
0
281
0
  0
CLASS
  1
CELLSTYLEMAP
  2
AcDbCellStyleMap
  3
ObjectDBX Classes
 90
1152
 91
0
280
0
281
0
  0
CLASS
  1
MENTALRAYRENDERSETTINGS
  2
AcDbMentalRayRenderSettings
  3
SCENEOE
 90
1024
 91
0
280
0
281
0
  0
CLASS
  1
ACDBDETAILVIEWSTYLE
  2
AcDbDetailViewStyle
  3
ObjectDBX Classes
 90
1025
 91
0
280
0
281
0
  0
CLASS
  1
ACDBSECTIONVIEWSTYLE
  2
AcDbSectionViewStyle
  3
ObjectDBX Classes
 90
1025
 91
0
280
0
281
0
  0
CLASS
  1
RASTERVARIABLES
  2
AcDbRasterVariables
  3
ISM
 90
0
 91
0
280
0
281
0
  0
CLASS
  1
LAYOUT
  2
AcDbLayout
  3
ObjectDBX Classes
 90
0
 91
0
280
0
281
0
  0
CLASS
  1
ACDBPLACEHOLDER
  2
AcDbPlaceHolder
  3
ObjectDBX Classes
 90
0
 91
0
280
0
281
0
  0
ENDSEC
  0
SECTION
  2
TABLES
  0
TABLE
  2
VPORT
  5
8
330
0
100
AcDbSymbolTable
 70
1
  0
VPORT
  5
23
330
8
100
AcDbSymbolTableRecord
100
AcDbViewportTableRecord
  2
*Active
 70
0
 10
0.0
 20
0.0
 11
1.0
 21
1.0
 12
0.0
 22
0.0
 13
0.0
 23
0.0
 14
0.5
 24
0.5
 15
0.5
 25
0.5
 16
0.0
 26
0.0
 36
1.0
 17
0.0
 27
0.0
 37
0.0
 40
1000.0
 41
1.34
 42
50.0
 43
0.0
 44
0.0
 50
0.0
 51
0.0
 71
0
 72
1000
 73
1
 74
3
 75
0
 76
0
 77
0
 78
0
281
0
 65
0
146
0.0
  0
ENDTAB
  0
TABLE
  2
LTYPE
  5
2
330
0
100
AcDbSymbolTable
 70
3
  0
LTYPE
  5
24
330
2
100
AcDbSymbolTableRecord
100
AcDbLinetypeTableRecord
  2
ByBlock
 70
0
  3

 72
65
 73
0
 40
0.0
  0
LTYPE
  5
25
330
2
100
AcDbSymbolTableRecord
100
AcDbLinetypeTableRecord
  2
ByLayer
 70
0
  3

 72
65
 73
0
 40
0.0
  0
LTYPE
  5
26
330
2
100
AcDbSymbolTableRecord
100
AcDbLinetypeTableRecord
  2
Continuous
 70
0
  3

 72
65
 73
0
 40
0.0
  0
ENDTAB
  0
TABLE
  2
LAYER
  5
1
330
0
100
AcDbSymbolTable
 70
3
  0
LAYER
  5
27
330
1
100
AcDbSymbolTableRecord
100
AcDbLayerTableRecord
  2
0
 70
0
 62
7
  6
Continuous
370
-3
390
13
347
21
  0
LAYER
  5
28
330
1
100
AcDbSymbolTableRecord
100
AcDbLayerTableRecord
  2
Defpoints
 70
0
 62
7
  6
Continuous
290
0
370
-3
390
13
347
21
  0
LAYER
  5
2F
330
1
100
AcDbSymbolTableRecord
100
AcDbLayerTableRecord
  2
ROADS
 70
0
 62
7
  6
Continuous
370
-3
390
13
347
21
  0
ENDTAB
  0
TABLE
  2
STYLE
  5
5
330
0
100
AcDbSymbolTable
 70
1
  0
STYLE
  5
29
330
5
100
AcDbSymbolTableRecord
100
AcDbTextStyleTableRecord
  2
Standard
 70
0
 40
0.0
 41
1.0
 50
0.0
 71
0
 42
2.5
  3
txt
  4

  0
ENDTAB
  0
TABLE
  2
VIEW
  5
7
330
0
100
AcDbSymbolTable
 70
0
  0
ENDTAB
  0
TABLE
  2
UCS
  5
6
330
0
100
AcDbSymbolTable
 70
0
  0
ENDTAB
  0
TABLE
  2
APPID
  5
3
330
0
100
AcDbSymbolTable
 70
3
  0
APPID
  5
2A
330
3
100
AcDbSymbolTableRecord
100
AcDbRegAppTableRecord
  2
ACAD
 70
0
  0
APPID
  5
3F
330
3
100
AcDbSymbolTableRecord
100
AcDbRegAppTableRecord
  2
HATCHBACKGROUNDCOLOR
 70
0
  0
APPID
  5
40
330
3
100
AcDbSymbolTableRecord
100
AcDbRegAppTableRecord
  2
EZDXF
 70
0
  0
ENDTAB
  0
TABLE
  2
DIMSTYLE
  5
4
330
0
100
AcDbSymbolTable
 70
1
100
AcDbDimStyleTable
  0
DIMSTYLE
105
2B
330
4
100
AcDbSymbolTableRecord
100
AcDbDimStyleTableRecord
  2
Standard
 70
0
 40
1.0
 41
2.5
 42
0.625
 43
3.75
 44
1.25
 45
0.0
 46
0.0
 47
0.0
 48
0.0
 49
2.5
140
2.5
141
2.5
142
0.0
143
0.03937007874
144
1.0
145
0.0
146
1.0
147
0.625
148
0.0
 69
0
 70
0
 71
0
 72
0
 73
0
 74
0
 75
0
 76
0
 77
1
 78
8
 79
3
170
0
171
3
172
1
173
0
174
0
175
0
176
0
177
0
178
0
179
2
271
2
272
2
273
2
274
3
275
0
276
0
277
2
278
44
279
0
280
0
281
0
282
0
283
0
284
8
285
0
286
0
288
0
289
3
290
0
371
-2
372
-2
  0
ENDTAB
  0
TABLE
  2
BLOCK_RECORD
  5
9
330
0
100
AcDbSymbolTable
 70
2
  0
BLOCK_RECORD
  5
17
330
9
100
AcDbSymbolTableRecord
100
AcDbBlockTableRecord
  2
*Model_Space
340
1A
 70
0
280
1
281
0
  0
BLOCK_RECORD
  5
1B
330
9
100
AcDbSymbolTableRecord
100
AcDbBlockTableRecord
  2
*Paper_Space
340
1E
 70
0
280
1
281
0
  0
ENDTAB
  0
ENDSEC
  0
SECTION
  2
BLOCKS
  0
BLOCK
  5
18
330
17
100
AcDbEntity
  8
0
100
AcDbBlockBegin
  2
*Model_Space
 70
0
 10
0.0
 20
0.0
 30
0.0
  3
*Model_Space
  1

  0
ENDBLK
  5
19
330
17
100
AcDbEntity
  8
0
100
AcDbBlockEnd
  0
BLOCK
  5
1C
330
1B
100
AcDbEntity
  8
0
100
AcDbBlockBegin
  2
*Paper_Space
 70
0
 10
0.0
 20
0.0
 30
0.0
  3
*Paper_Space
  1

  0
ENDBLK
  5
1D
330
1B
100
AcDbEntity
  8
0
100
AcDbBlockEnd
  0
ENDSEC
  0
SECTION
  2
ENTITIES
  0
LWPOLYLINE
  5
30
330
17
100
AcDbEntity
  8
ROADS
100
AcDbPolyline
 90
16
 70
0
 10
36.367268715884414
 20
17.72415564323211
 10
33.917064267282086
 20
18.116077395497783
 10
33.228381945535986
 20
18.282313869056534
 10
32.573713567600684
 20
18.66597884281528
 10
32.14193656284468
 20
19.223036164867466
 10
32.03709358303491
 20
20.093851069478813
 10
31.92944945490462
 20
20.978427271575633
 10
31.672143973836242
 20
22.693635389599635
 10
31.43604718715404
 20
23.52481775747161
 10
31.027879861083317
 20
24.313615329075823
 10
30.480455447313748
 20
25.059477652545716
 10
29.711340152485995
 20
25.6011223213954
 10
29.57888585354931
 20
25.9968972369617
 10
29.546872729902468
 20
26.39102079681097
 10
29.439628765793596
 20
27.999991698330074
 10
29.27316052298925
 20
30.603078729845844
  0
LWPOLYLINE
  5
31
330
17
100
AcDbEntity
  8
ROADS
100
AcDbPolyline
 90
47
 70
0
 10
25.77372594796208
 20
93.32432038921348
 10
26.213906397679644
 20
93.97935814930275
 10
27.69451336478221
 20
95.7958494167979
 10
28.03065116273284
 20
96.9132667722581
 10
28.430815207920286
 20
98.01417057074357
 10
29.53926961304061
 20
100.08386971191658
 10
30.06348451220318
 20
101.13523283947782
 10
30.56769120915756
 20
102.20310952401381
 10
31.29999141179713
 20
104.43243971595567
 10
31.800196468309874
 20
105.48380284351691
 10
32.20436215393896
 20
106.58470664200237
 10
32.63653932271638
 20
107.67460140249165
 10
33.148749300497165
 20
108.72596453005289
 10
33.54091006480134
 20
109.8323728475169
 10
33.79701505369173
 20
110.97180827896949
 10
33.96908559313712
 20
112.13326178637537
 10
34.1891758179959
 20
114.4891959151366
 10
34.33323487423609
 20
115.65615394152103
 10
35.181582650024374
 20
120.26894085719506
 10
35.81784348183716
 20
122.53680268206494
 10
36.982320853311016
 20
127.10004892681476
 10
37.3824848984416
 20
128.21196176329644
 10
38.68301804527236
 20
130.1605614865895
 10
39.37930348388032
 20
131.1128432723023
 10
40.20764305740355
 20
131.91650304520334
 10
41.292087619817174
 20
132.37888264057426
 10
43.569021036852995
 20
132.90731646384415
 10
44.73349840832685
 20
132.9953887676964
 10
45.921985622507414
 20
132.90731646384415
 10
47.09446627486455
 20
132.87979386887324
 10
47.8867910842993
 20
133.0130032284825
 10
48.481034691361145
 20
133.10272688805176
 10
49.39580969862848
 20
133.3388707528492
 10
50.34059700932185
 20
133.67299505568374
 10
53.67076219322415
 20
135.02710672780796
 10
57.935710586715714
 20
136.62011452421888
 10
58.7800567220055
 20
137.02469667019778
 10
59.58998874946307
 20
137.28561087043778
 10
62.4439587196162
 20
137.60762523146477
 10
64.9317785885064
 20
137.82725553928748
 10
66.08144989027797
 20
138.51036634625336
 10
66.81294976481783
 20
138.86760962885253
 10
67.39478828653334
 20
138.82192212122894
 10
67.75813723953262
 20
138.42834901324622
 10
67.96422172278879
 20
137.29661990839486
 10
68.46682776354378
 20
136.41094280252582
 10
69.94943555092402
 20
134.3417941132585
  0
LWPOLYLINE
  5
32
330
17
100
AcDbEntity
  8
ROADS
100
AcDbPolyline
 90
61
 70
0
 10
26.614070442810224
 20
6.11622599196321
 10
26.90218855534746
 20
6.2153073338507605
 10
28.17951218757123
 20
6.656769757040654
 10
29.315177747740186
 20
7.239147866441068
 10
30.25156161347199
 20
7.938221778476013
 10
31.051889703790014
 20
8.785917703283614
 10
34.47449278221262
 20
14.27557449445322
 10
35.70699804130807
 20
16.312796973582426
 10
36.367268715884414
 20
17.72415564323211
 10
36.74622406662881
 20
18.69955640867044
 10
36.98632249375265
 20
19.844496359101576
 10
37.00232905557608
 20
22.161898854934794
 10
36.51733023278705
 20
28.03522061986315
 10
36.242817697831
 20
33.97789932408541
 10
35.871465463891596
 20
35.60173242686223
 10
35.28962694223295
 20
37.20189609796873
 10
34.80502828352221
 20
38.59233759547648
 10
34.23879615955183
 20
40.736898194921935
 10
33.73699044695342
 20
43.37851685940484
 10
33.45687561529947
 20
45.335923813110504
 10
33.00068860381535
 20
53.58719778275338
 10
33.07351846003514
 20
55.13121536014577
 10
33.28600556803206
 20
56.67468248563248
 10
33.98909379540218
 20
59.609141560493505
 10
35.290027106254364
 20
61.59297020535875
 10
40.02636874495377
 20
66.92299594575951
 10
41.09520690956539
 20
67.70683945029086
 10
41.872725649354706
 20
67.94903828593341
 10
42.98678235111607
 20
68.11857747092623
 10
44.170067432733866
 20
67.82023254153044
 10
45.44659073680107
 20
67.07657202564414
 10
46.89838589271246
 20
66.44850640862013
 10
47.640690196513
 20
66.36924133510227
 10
48.90640907137641
 20
66.32190247180075
 10
49.9148224652283
 20
66.58501847962435
 10
51.19214609745207
 20
67.05675575727446
 10
53.26899749189417
 20
68.13564147980664
 10
54.132551501349305
 20
68.4235278231119
 10
55.80243606189867
 20
68.95031029066476
 10
56.81845257255555
 20
69.40718536705715
 10
57.70281511243232
 20
70.13928639304157
 10
64.64566129618999
 20
79.62907713602459
 10
66.4544027803599
 20
81.16483793491005
 10
67.4868260169185
 20
81.7593259860789
 10
69.29396684494588
 20
82.51069282856646
 10
70.78417774913112
 20
83.12995121521698
 10
71.31639592923383
 20
83.43600247117489
 10
72.58491595241776
 20
84.16480078576437
 10
73.64134903168305
 20
84.98497411564014
 10
80.56018537273403
 20
91.36471162788511
 10
82.18485139619051
 20
93.07661703455328
 10
83.95837844437165
 20
95.4804404785217
 10
84.66586847626169
 20
96.43987813893008
 10
91.72876387355285
 20
105.94618243884874
 10
92.92525436861668
 20
107.95533187110132
 10
93.3094118519807
 20
109.0562356695868
 10
93.78160542528825
 20
111.36262912742382
 10
94.57393023477987
 20
120.7093023765736
 10
95.12615661709077
 20
123.00468679645354
 10
96.17258559525196
 20
126.08116246129732
 10
96.34385580654077
 20
126.58537640103035
  0
LWPOLYLINE
  5
33
330
17
100
AcDbEntity
  8
ROADS
100
AcDbPolyline
 90
28
 70
0
 10
25.77372594796208
 20
93.32432038921348
 10
24.425173115717918
 20
92.6913007050775
 10
23.87694837384865
 20
92.34451600852974
 10
23.432766283689446
 20
92.06378553992006
 10
22.5404004629294
 20
91.3041619189647
 10
21.063795136268475
 20
89.46565257547715
 10
20.42753430445569
 20
88.46383011887924
 10
19.75525870855443
 20
87.4950347761917
 10
19.02696014629963
 20
86.55926654749274
 10
18.47873540443036
 20
85.97028301530243
 10
18.066566437918
 20
85.43634467301489
 10
16.99412679682929
 20
83.06389698727891
 10
16.6139709539069
 20
81.95198415079724
 10
16.381875807723205
 20
80.80153968138757
 10
15.965705200769204
 20
79.69513136392355
 10
14.541121199906444
 20
77.7960723115156
 10
13.904860368093662
 20
76.79424985491768
 10
13.048509311422096
 20
75.99059008201665
 10
12.328214030107441
 20
75.0438128153215
 10
10.199341309810311
 20
74.04749487766301
 10
9.170919713693358
 20
73.51906105439312
 10
8.178512881664886
 20
72.88604137025713
 10
7.014035510191026
 20
72.65485157257167
 10
5.84155485783389
 20
72.59430186365125
 10
4.673075845918392
 20
72.73191483846682
 10
3.516601755384676
 20
72.99062723112323
 10
2.3481227434691774
 20
73.19979895285542
 10
1.5638012149177052
 20
73.30988933270005
  0
LWPOLYLINE
  5
34
330
17
100
AcDbEntity
  8
ROADS
100
AcDbPolyline
 90
31
 70
0
 10
33.28600556803206
 20
56.67468248563248
 10
32.14033590670214
 20
57.91925422981773
 10
31.708158737924723
 20
58.45869709108382
 10
31.408035704005705
 20
58.82749986358486
 10
30.651725658659434
 20
59.59262800351877
 10
28.85498909581443
 20
61.04031649855199
 10
27.102270577941184
 20
62.55405922144505
 10
25.833750554757255
 20
63.48982745018312
 10
25.693693138901843
 20
63.61092686802395
 10
24.94538637443885
 20
64.23293751416374
 10
24.089035317767287
 20
65.02008373005093
 10
23.316718710597595
 20
65.91181580684332
 10
22.956571069940267
 20
67.00721508635024
 10
22.85653005867184
 20
68.16866859375611
 10
22.80450873275994
 20
69.33562662014054
 10
22.68445951922645
 20
70.49708012754641
 10
22.524393901162846
 20
71.6475245969561
 10
22.316308597685847
 20
73.99244968776026
 10
22.16024462006388
 20
75.14839867614847
 10
21.944156035646735
 20
76.30434766457581
 10
21.80009697940655
 20
77.47130569096024
 10
21.848116664819948
 20
78.64376823636232
 10
22.01218392332519
 20
79.79971722478965
 10
22.492380777516004
 20
82.08959712561281
 10
22.7764972496116
 20
83.22903255706541
 10
23.12463996888715
 20
84.34644991252561
 10
23.936972980586958
 20
86.53724847150035
 10
24.64126170013506
 20
88.78309222041695
 10
25.301532374654542
 20
91.04544952630829
 10
25.67768657713529
 20
92.5867148442114
 10
25.77372594796208
 20
93.32432038921348
  0
LWPOLYLINE
  5
35
330
17
100
AcDbEntity
  8
ROADS
100
AcDbPolyline
 90
16
 70
0
 10
51.19214609745207
 20
67.05675575727446
 10
51.0320804793316
 20
66.58887164292499
 10
50.89602470397469
 20
66.19805079447066
 10
50.69994432187947
 20
65.62007630023743
 10
50.135713018186784
 20
64.59623576764713
 10
49.547471871787394
 20
63.58340427305301
 10
49.139304545659805
 20
62.49350951252464
 10
48.78716018594262
 20
61.370587638085894
 10
48.178910837278174
 20
59.09171677521981
 10
47.72672546623569
 20
57.99631749571289
 10
47.31855814016497
 20
56.91192725420216
 10
47.27854173563485
 20
55.75047374679629
 10
47.39859094916834
 20
54.605533796365144
 10
47.98683209556773
 20
53.63123393469906
 10
48.95923072533114
 20
53.058763959483485
 10
49.33138328737025
 20
52.92665550368557
  0
LWPOLYLINE
  5
36
330
17
100
AcDbEntity
  8
ROADS
100
AcDbPolyline
 90
19
 70
0
 10
25.833750554757255
 20
63.48982745018312
 10
25.670483624294846
 20
62.27938372371958
 10
25.28752663305194
 20
60.901602619925065
 10
24.79332403731539
 20
59.27336590198106
 10
24.39315999212794
 20
57.59999212828002
 10
24.12665073805517
 20
55.769189111393736
 10
23.771305065939178
 20
54.817457777586604
 10
22.83091955976574
 20
54.002788966689366
 10
22.24227824928807
 20
53.51618948778156
 10
21.95055866038748
 20
52.296388079038856
 10
21.84211420410062
 20
49.78797877420433
 10
21.474763610659718
 20
46.939390195611956
 10
21.44034950277064
 20
45.57316858168019
 10
21.12141875876455
 20
44.2096992272377
 10
20.195839322293413
 20
41.48000825890256
 10
19.204632982386055
 20
39.898009500487824
 10
18.403904727989747
 20
36.88703761159821
 10
17.806459808529098
 20
33.71423286435614
 10
17.544752522997662
 20
29.26107699949007
  0
LWPOLYLINE
  5
37
330
17
100
AcDbEntity
  8
ROADS
100
AcDbPolyline
 90
23
 70
0
 10
18.066566437918
 20
85.43634467301489
 10
17.470322010578467
 20
85.61799379977613
 10
16.673995560702078
 20
86.38312193974915
 10
16.30984627960311
 20
87.4840257382346
 10
15.725606773645364
 20
88.60694761267335
 10
15.22140007674785
 20
89.57023843634325
 10
14.777217986588647
 20
90.66013319687163
 10
14.465090031344713
 20
91.79956862828512
 10
14.220989963779234
 20
92.93349954072005
 10
14.128952233394083
 20
93.58853730084843
 10
14.060924345715629
 20
94.09495304812593
 10
14.28501621101605
 20
95.20136136562905
 10
14.469091671786352
 20
96.32978775908545
 10
14.365049020076285
 20
97.49124126649133
 10
14.47709495266963
 20
98.64719025487955
 10
14.757209784323589
 20
99.7811211673145
 10
15.67358544779033
 20
103.19942746163318
 10
15.905680593974028
 20
104.34436741206432
 10
16.193798706511263
 20
105.48930736249545
 10
16.72601688655711
 20
106.52415693308195
 10
17.398292482458373
 20
107.44891612378471
 10
18.030551673829518
 20
108.46174761841795
 10
18.13859596603809
 20
108.81954135292278
  0
LWPOLYLINE
  5
38
330
17
100
AcDbEntity
  8
ROADS
100
AcDbPolyline
 90
185
 70
0
 10
40.81189076562636
 20
-6.632239994530525
 10
42.07240750792701
 20
-7.19920545072844
 10
43.000788092718665
 20
-7.920297438755779
 10
44.91757386909716
 20
-9.312940743847125
 10
45.86196101571224
 20
-10.023023693878267
 10
46.862371128623984
 20
-10.656043378014253
 10
47.1865040052497
 20
-10.78815183381217
 10
47.950817331536115
 20
-11.101909416371337
 10
49.10328978162819
 20
-11.388144403998677
 10
49.559076629090896
 20
-11.513096985101022
 10
51.44024780545919
 20
-11.839514961373416
 10
52.2045611317456
 20
-11.927587265264767
 10
52.61673009825796
 20
-11.971623417171333
 10
53.7892107506151
 20
-11.795478809427738
 10
54.82963726805697
 20
-11.267044986157845
 10
55.90207690914568
 20
-10.766133757858888
 10
58.175008685739854
 20
-10.122105035726706
 10
60.41192569824556
 20
-9.40651756671702
 10
61.548391586514214
 20
-9.070741908165461
 10
62.636837789426345
 20
-8.619371350790724
 10
63.45717408200943
 20
-7.8047025399326015
 10
65.01981467839305
 20
-5.503813601074126
 10
66.09825678014421
 20
-3.907503093268248
 10
68.02704747790449
 20
-0.9460718753419609
 10
68.72733455695409
 20
0.01171442934938786
 10
69.48364460235722
 20
0.9144555440988631
 10
70.31198417582358
 20
1.7621514689455766
 10
72.15273878364034
 20
3.259380634903016
 10
72.98908163804686
 20
4.107076559710618
 10
73.58532606538638
 20
5.114403535326185
 10
74.05751963869392
 20
6.182280219862169
 10
75.085941234754
 20
8.312529069955595
 10
75.67018074071176
 20
9.330865083567359
 10
76.31844649390632
 20
10.316173983190533
 10
77.03874177522097
 20
11.262951249885685
 10
77.87908627006912
 20
12.077620060782918
 10
77.93711005664348
 20
12.113949886127346
 10
78.88349802347938
 20
12.70513522590125
 10
79.93993110274467
 20
13.233569049210255
 10
80.89232153024302
 20
13.91612940427046
 10
81.78068571056143
 20
14.692266582200562
 10
82.58101380087945
 20
15.556476064022014
 10
83.20126807092568
 20
16.552794001641384
 10
83.70147312738155
 20
17.60966164818117
 10
84.25770115019097
 20
18.63900669975002
 10
85.00200627421232
 20
19.552756852495694
 10
85.93038685900397
 20
20.28485787851923
 10
86.65868542120191
 20
20.636596642139853
 10
86.99082157871091
 20
20.796778144814382
 10
88.10727926477136
 20
21.138058322344484
 10
89.26775499574673
 20
21.303193892091883
 10
90.4202274458388
 20
21.50135657582787
 10
91.52468021051749
 20
21.881168386325108
 10
92.59311821116455
 20
22.349052500674585
 10
94.66996960560665
 20
23.416929185210567
 10
95.7224010444303
 20
23.890317818538588
 10
96.85486529225732
 20
24.303156742985305
 10
97.93130657378767
 20
24.771040857334782
 10
98.9557265294061
 20
25.354519870546547
 10
99.91612023784461
 20
26.04808926360295
 10
100.82049097992957
 20
26.802208365540658
 10
101.6728403961595
 20
27.61137265745935
 10
102.46516520559425
 20
28.486591177237887
 10
103.88174592551687
 20
30.363632153653448
 10
105.69448905012842
 20
33.36909952352541
 10
106.18268918525938
 20
34.431471689082855
 10
106.64287783718514
 20
35.51035741161503
 10
107.0350386014893
 20
36.62227024805758
 10
107.49522725341507
 20
38.9286637058946
 10
107.68730599512551
 20
40.095621732318136
 10
107.79935192777572
 20
41.25157072070636
 10
107.64328795015375
 20
43.602000330489055
 10
107.29514523082133
 20
45.94142090227555
 10
107.25913046678973
 20
47.12489248563472
 10
107.46721577026672
 20
48.2863459930406
 10
107.88338637727759
 20
49.38724979152606
 10
108.49163572594203
 20
50.39457676714163
 10
109.33198022079019
 20
51.231263653992144
 10
110.32038541237702
 20
51.88079689510287
 10
111.26477255899209
 20
52.57436628815927
 10
112.09711377295696
 20
53.41655769398833
 10
113.60973386370637
 20
55.21103088553019
 10
114.38205047087605
 20
56.09725844330493
 10
115.23039824666435
 20
56.91192725420216
 10
116.12276406736753
 20
57.67155087515753
 10
117.04714301171754
 20
58.39814738216341
 10
118.25243711582122
 20
58.97502097258528
 10
119.07917603314505
 20
59.42418972233731
 10
119.92792397295474
 20
59.92179823928043
 10
120.48415199576417
 20
60.390783257441264
 10
120.94674163198903
 20
60.86527279458063
 10
121.35210780973922
 20
61.350220917810525
 10
121.6162160795129
 20
61.825260906855576
 10
121.97916486849074
 20
62.67956225449219
 10
122.37812842155708
 20
63.40395695387536
 10
123.4037488693535
 20
64.89347979323155
 10
124.13604907199309
 20
65.71255221933508
 10
125.8235408505084
 20
67.51968580455107
 10
126.75512274764199
 20
68.62829592959866
 10
127.95001258656329
 20
70.04626002207736
 10
128.57586915319368
 20
70.64955530361969
 10
129.7859652258387
 20
71.5258747272487
 10
129.99645151355796
 20
71.67504719192704
 10
132.02528322258664
 20
72.88604137025713
 10
133.0537048187036
 20
73.4585113454727
 10
134.150154302499
 20
73.8933683458727
 10
135.31463167391598
 20
74.08602651063015
 10
136.4991172476549
 20
74.01446776371354
 10
137.67960118089533
 20
73.9043773838689
 10
138.63119128035086
 20
73.83722225215858
 10
138.8480801928108
 20
73.8218095989952
 10
140.00855592384303
 20
73.93740449781838
 10
141.12901525034516
 20
74.28418919436614
 10
142.2254647340837
 20
74.74106427071942
 10
143.14184039755042
 20
75.18693030911561
 10
143.43796179097095
 20
75.31353424593499
 10
144.4023571398511
 20
75.7263731703817
 10
145.45078693817624
 20
76.26031151263014
 10
146.57124626467834
 20
76.65113236108446
 10
147.73172199571056
 20
76.83278148784571
 10
150.09268986224825
 20
77.00342157661076
 10
151.27317379548865
 20
77.13553003244779
 10
152.44565444784578
 20
77.31167464019138
 10
153.606130178878
 20
77.55387347587305
 10
154.76260426941172
 20
77.82359490648653
 10
155.92308000038707
 20
78.01625307120487
 10
157.1195704955078
 20
78.06028922315055
 10
158.30405606918984
 20
78.02726210920106
 10
159.4805383619886
 20
78.09882085611768
 10
160.61700425031412
 20
78.3960648817021
 10
161.657430767756
 20
78.98504841389241
 10
162.94595899320498
 20
79.66210424997408
 10
163.25808694844892
 20
79.82723981972147
 10
165.0028021854389
 20
79.17770657861075
 10
167.12367162485273
 20
78.1483615270419
 10
168.20011290632624
 20
77.68047741269243
 10
170.41702171662374
 20
76.8217724498495
 10
171.55348760489238
 20
76.45296967738759
 10
172.70596005504134
 20
76.14471661380696
 10
173.8824423478401
 20
76.04013075294087
 10
175.06692792152216
 20
76.08416690488654
 10
176.23140529299602
 20
76.28232958858342
 10
178.50833871003184
 20
76.85479956379899
 10
179.65680951968227
 20
77.16305262737961
 10
180.813283610216
 20
77.4437830959893
 10
181.9737593412482
 20
77.67497289367476
 10
184.3427304886692
 20
77.76854971654467
 10
184.56282071352797
 20
77.75754067858757
 10
185.53922098373303
 20
77.7135045266419
 10
186.73170983835521
 20
77.69699096966716
 10
187.92019705253577
 20
77.73001808361664
 10
189.1046826262747
 20
77.73552260259518
 10
190.28916819995675
 20
77.6089186657758
 10
191.4536455714306
 20
77.36671983009414
 10
193.7505871907315
 20
76.74470918395436
 10
194.91506456220534
 20
76.45296967738759
 10
197.2440193050962
 20
75.95756296806717
 10
197.48811937266169
 20
75.89701325914675
 10
199.19681984556317
 20
75.47866981572149
 10
199.8290790369343
 20
75.14289415716993
 10
201.2536630377402
 20
74.80161397963984
 10
202.39413056650736
 20
74.49886543503776
 10
204.65905906216142
 20
73.80529604202046
 10
205.79952659092856
 20
73.3869525985952
 10
206.8719662319604
 20
72.91356396522808
 10
207.22010895129281
 20
72.73191483846682
 10
207.94840751349076
 20
72.40164369893292
 10
208.32056007552987
 20
72.31907591405923
 10
208.71272083977718
 20
72.30256235708448
 10
209.8491867281027
 20
72.57778830667651
 10
212.05809225746006
 20
73.44199778849797
 10
212.99847776357663
 20
73.73373729510385
 10
213.19055650528708
 20
73.79428700402427
 10
214.35503387676093
 20
74.05299939668068
 10
215.54352109088464
 20
74.08602651063015
 10
216.69599354103357
 20
73.8218095989952
 10
217.78844138433047
 20
73.38144807957755
 10
218.86488266586082
 20
72.8915458892748
 10
221.05778163339477
 20
72.02183188843568
 10
223.3147068481655
 20
71.28973086245126
 10
224.45917601737432
 20
70.95945972291736
 10
225.2314926246009
 20
70.77230607717756
 10
226.57084168378378
 20
70.504236002242
 10
226.93419063678306
 20
70.53340995289085
 10
227.14467692455915
 20
70.59120740232198
  0
LWPOLYLINE
  5
39
330
17
100
AcDbEntity
  8
ROADS
100
AcDbPolyline
 90
67
 70
0
 10
5.9335925882190415
 20
-131.77747928764228
 10
6.349763195229908
 20
-130.5444670333589
 10
6.793945285332244
 20
-129.39952708292776
 10
7.306155263169901
 20
-127.90780243594885
 10
7.490230723940204
 20
-127.14267429601495
 10
7.714322589240624
 20
-125.58489542113709
 10
7.710320948798986
 20
-122.03998519003815
 10
7.678307825209012
 20
-121.86384058225545
 10
7.486229083498565
 20
-120.87302716361462
 10
7.202112611459834
 20
-119.73359173220113
 10
7.146089645106296
 20
-118.96295907324958
 10
7.246130656374724
 20
-118.18682189531948
 10
7.658299622943953
 20
-117.05839550186307
 10
8.762752387622635
 20
-114.9446602087835
 10
9.599095242029142
 20
-113.17770961221258
 10
11.079702209188573
 20
-109.50069092523749
 10
12.276192704252407
 20
-106.19247501080255
 10
13.300612659870854
 20
-103.21453023586243
 10
13.504696322906215
 20
-102.43839305793232
 10
13.628747176938207
 20
-101.65675136102368
 10
13.740793109588418
 20
-100.47878429664306
 10
13.648755379203267
 20
-97.74303835738459
 10
13.464679918432964
 20
-95.00178789914757
 10
13.43666843522776
 20
-93.41098191035934
 10
13.472683199316242
 20
-92.81098934017284
 10
13.528706165612913
 20
-91.82017592153201
 10
13.836832480415207
 20
-89.44222371677837
 10
13.856840682680266
 20
-85.88630444768324
 10
13.58873077240809
 20
-82.36891681151612
 10
13.328624143076055
 20
-78.48823092182651
 10
13.468681558874602
 20
-77.72860730087115
 10
13.952880053507057
 20
-76.25890072988464
 10
14.216988323337596
 20
-75.2075376023234
 10
14.629157289849957
 20
-73.58920901856425
 10
15.549534593758338
 20
-69.74155024286321
 10
16.173790504246202
 20
-66.61498345515042
 10
16.621974234847045
 20
-62.30494508407846
 10
17.89849753891425
 20
-57.41693221877328
 10
18.110584482889752
 20
-56.2664877493636
 10
18.146599246921365
 20
-53.51973277214804
 10
17.530346617373645
 20
-48.373007514186455
 10
16.686000482083863
 20
-45.758360992768814
 10
15.949698638945783
 20
-43.925356168298926
 10
14.188976840189259
 20
-39.984120569728006
 10
13.500694682464577
 20
-37.75479037778614
 10
13.26859953628088
 20
-36.45021937658615
 10
12.87643877197671
 20
-34.253916298593765
 10
12.784401041591558
 20
-33.68695084235674
 10
11.872027018623323
 20
-28.017296280142915
 10
11.495872816142573
 20
-26.481535481257453
 10
11.387828523934001
 20
-25.710902822305897
 10
11.375823602609087
 20
-24.929261125397254
 10
11.455856411612455
 20
-24.142114909470955
 10
11.639931872439625
 20
-23.3714822505194
 10
11.900038501771657
 20
-22.628372186538776
 10
12.900448614683407
 20
-20.817385438061283
 10
13.240588053132543
 20
-20.20087931090004
 10
16.213806908776323
 20
-15.577083357229803
 10
16.357865965016508
 20
-15.36791163553673
 10
17.770445044497485
 20
-13.320230570356115
 10
20.635619607932693
 20
-8.613866831812182
 10
22.036193766031886
 20
-6.246923665054746
 10
23.468781047777924
 20
-3.879980498297311
 10
24.861351924993844
 20
-1.4855147366080514
 10
27.198309948767974
 20
2.466729899998176
 10
27.606477274838696
 20
3.121767660087444
 10
28.170708578531386
 20
4.338266357396085
  0
LWPOLYLINE
  5
3A
330
17
100
AcDbEntity
  8
ROADS
100
AcDbPolyline
 90
35
 70
0
 10
84.66586847626169
 20
96.43987813893008
 10
84.06962404892215
 20
98.28939652037471
 10
83.90555679041691
 20
99.09305629327575
 10
83.83752890273846
 20
99.4288319518273
 10
83.74949281279494
 20
100.60679901620793
 10
83.85753710500352
 20
101.77375704259235
 10
83.88554858815185
 20
102.93521054999823
 10
83.72548297008825
 20
104.09115953842557
 10
83.38534353169598
 20
105.20307237486811
 10
82.96517128424348
 20
106.28746261637883
 10
82.42494982325748
 20
107.33332122496154
 10
82.12482678939533
 20
107.82322341530342
 10
81.80869719370976
 20
108.34615271955565
 10
81.15642980007355
 20
109.32595710023939
 10
80.48015256373066
 20
110.29475244288783
 10
79.09158332695638
 20
112.19381149529579
 10
78.37929132658186
 20
113.12957972399474
 10
77.71101737112224
 20
114.09287054766463
 10
77.214813955108
 20
115.16074723220062
 10
77.12677786516448
 20
116.33320977760269
 10
77.24282543825633
 20
117.50016780398711
 10
77.4709189439984
 20
118.63409871642206
 10
77.6589960452672
 20
119.7790386668532
 10
77.61897964073708
 20
120.92397861728433
 10
77.2388237978147
 20
123.23037207512135
 10
76.95870896621761
 20
124.35879846857775
 10
76.3904760220264
 20
125.39364803916426
 10
76.10235790954604
 20
125.70905697740135
 10
75.51811840358829
 20
126.70922807836045
 10
75.17797896513916
 20
127.40830199039539
 10
74.71378867277176
 20
128.48718771288847
 10
74.461685324323
 20
129.18626162496253
 10
74.31762626802596
 20
129.58809151137393
 10
73.94547370604371
 20
130.70000434785558
 10
73.61733918897636
 20
131.8064126653587
  0
LWPOLYLINE
  5
3B
330
17
100
AcDbEntity
  8
ROADS
100
AcDbPolyline
 90
8
 70
0
 10
71.31639592923383
 20
83.43600247117489
 10
71.39242709779558
 20
82.97142106822037
 10
71.34840905282381
 20
82.26684263716777
 10
70.48885668381031
 20
78.46322001341241
 10
69.90341668573144
 20
76.07646057828529
 10
69.31797668765257
 20
73.73208593938682
 10
69.26075322917792
 20
72.26623253170094
 10
69.26035306515651
 20
70.52955678959022
  0
LWPOLYLINE
  5
3C
330
17
100
AcDbEntity
  8
ROADS
100
AcDbPolyline
 90
29
 70
0
 10
83.95837844437165
 20
95.4804404785217
 10
84.74790210548588
 20
95.09842686047999
 10
85.31653521369849
 20
94.74668809685936
 10
85.82114207467428
 20
94.33109691292337
 10
86.07884771976408
 20
93.92651476698359
 10
86.27212695359565
 20
93.46853878677985
 10
86.54023686386783
 20
92.95716897239036
 10
86.92679533147408
 20
92.40286390986657
 10
87.32375806431959
 20
91.94488792970193
 10
87.96802217701565
 20
91.6041582040775
 10
88.68711696620919
 20
91.41260094313141
 10
90.07168456248498
 20
91.2953546885912
 10
90.96244972704561
 20
91.15664080996427
 10
91.61711810498092
 20
90.93315733888006
 10
92.02488526697336
 20
90.67719720575204
 10
92.27178648285935
 20
90.44325514853819
 10
92.44345685822645
 20
90.14491021918153
 10
92.48667457515538
 20
89.49482652616513
 10
92.48667457515538
 20
87.38549484825273
 10
92.51868769874535
 20
86.1926655825753
 10
92.63673609205803
 20
85.41487704896728
 10
92.85162418435405
 20
84.93543344471593
 10
93.48468370376803
 20
83.88076760575973
 10
93.72318147469247
 20
83.5339829092511
 10
94.38625329758933
 20
82.57014163367552
 10
97.17699734860534
 20
78.29863489553159
 10
97.99253167270396
 20
77.09479659189707
 10
98.42190769316086
 20
76.65773778387435
 10
98.69041776745445
 20
76.51902390528655
  0
LWPOLYLINE
  5
3D
330
17
100
AcDbEntity
  8
ROADS
100
AcDbPolyline
 90
31
 70
0
 10
54.03331081818058
 20
-25.154946404065065
 10
53.56151740889446
 20
-25.116965223042722
 10
53.10533039741034
 20
-24.98650812292272
 10
52.655546010610095
 20
-24.726694826454963
 10
52.429053161067436
 20
-24.54614660350507
 10
51.983270414708834
 20
-24.1476194284495
 10
50.69114071289649
 20
-22.287092009008674
 10
49.37540133234201
 20
-20.382528437622174
 10
48.64710277014407
 20
-19.46327376589796
 10
47.89879600562421
 20
-18.560532651148485
 10
46.33815622946141
 20
-16.777068497602816
 10
45.60185438632334
 20
-15.868822863835685
 10
44.91357222865552
 20
-14.900027521187253
 10
44.32132944181449
 20
-13.881691507575487
 10
43.577024317736274
 20
-12.092722835012164
 10
43.42096034017117
 20
-11.71291102455404
 10
43.000788092718665
 20
-10.612007226068577
 10
42.552604362117826
 20
-9.522112465540198
 10
42.06040258654523
 20
-8.454235781004215
 10
41.44815159743914
 20
-7.446908805388648
 10
40.81189076562636
 20
-6.632239994530525
 10
39.91552330442468
 20
-5.6304175378935
 10
38.24283759561167
 20
-3.94603472619627
 10
37.36247669623341
 20
-3.147879472312887
 10
36.47011087547336
 20
-2.3772468133613294
 10
31.90423912001994
 20
1.3878441774659949
 10
30.031471388613205
 20
2.8190191154853634
 10
28.170708578531386
 20
4.338266357396085
 10
27.234324712856452
 20
5.307061700083631
 10
26.94220495987758
 20
5.57678313069712
 10
26.614070442810224
 20
6.11622599196321
  0
LWPOLYLINE
  5
3E
330
17
100
AcDbEntity
  8
ROADS
100
AcDbPolyline
 90
26
 70
0
 10
-22.550084147243012
 20
-13.595456519948147
 10
-17.35995648135859
 20
-11.734929100507323
 10
-15.002990255262537
 20
-11.12392749236373
 10
-13.54239149042503
 20
-10.914755770631546
 10
-11.905720545643632
 20
-10.727602124891755
 10
-5.162956384422819
 20
-10.661547896992797
 10
-3.686351057761893
 20
-10.16063666869384
 10
-2.4338375963445205
 20
-9.246886515948168
 10
-1.637511146468133
 20
-8.393686072122911
 10
1.6198241812712437
 20
-3.9405302072177273
 10
4.024810092723827
 20
-0.35158382413399686
 10
4.793125059508745
 20
0.5566618095940209
 10
6.10166148722279
 20
1.6135294561338076
 10
7.798357038742499
 20
2.4502163429843242
 10
9.330985331756963
 20
2.7694784445611442
 10
11.286587020544454
 20
2.6478285748146355
 10
12.76039119888486
 20
2.3759053366175515
 10
14.05692270527399
 20
2.279576254219273
 10
15.203792858725027
 20
2.205815699719065
 10
16.38587744816484
 20
2.378657596106823
 10
17.70201699274075
 20
2.6593880647165093
 10
18.98294210138474
 20
3.220849001935882
 10
21.968165878353435
 20
5.125412573322382
 10
23.436767924131082
 20
5.736414181505086
 10
25.037424104824
 20
6.0666853210389915
 10
26.614070442810224
 20
6.11622599196321
  0
ENDSEC
  0
SECTION
  2
OBJECTS
  0
DICTIONARY
  5
A
330
0
100
AcDbDictionary
281
1
  3
ACAD_COLOR
350
B
  3
ACAD_GROUP
350
C
  3
ACAD_LAYOUT
350
D
  3
ACAD_MATERIAL
350
E
  3
ACAD_MLEADERSTYLE
350
F
  3
ACAD_MLINESTYLE
350
10
  3
ACAD_PLOTSETTINGS
350
11
  3
ACAD_PLOTSTYLENAME
350
12
  3
ACAD_SCALELIST
350
14
  3
ACAD_TABLESTYLE
350
15
  3
ACAD_VISUALSTYLE
350
16
  3
EZDXF_META
350
2D
  0
DICTIONARY
  5
B
330
A
100
AcDbDictionary
281
1
  0
DICTIONARY
  5
C
330
A
100
AcDbDictionary
281
1
  0
DICTIONARY
  5
D
330
A
100
AcDbDictionary
281
1
  3
Model
350
1A
  3
Layout1
350
1E
  0
DICTIONARY
  5
E
330
A
100
AcDbDictionary
281
1
  3
ByBlock
350
1F
  3
ByLayer
350
20
  3
Global
350
21
  0
DICTIONARY
  5
F
330
A
100
AcDbDictionary
281
1
  3
Standard
350
2C
  0
DICTIONARY
  5
10
330
A
100
AcDbDictionary
281
1
  3
Standard
350
22
  0
DICTIONARY
  5
11
330
A
100
AcDbDictionary
281
1
  0
ACDBDICTIONARYWDFLT
  5
12
330
A
100
AcDbDictionary
281
1
  3
Normal
350
13
100
AcDbDictionaryWithDefault
340
13
  0
ACDBPLACEHOLDER
  5
13
330
12
  0
DICTIONARY
  5
14
330
A
100
AcDbDictionary
281
1
  0
DICTIONARY
  5
15
330
A
100
AcDbDictionary
281
1
  0
DICTIONARY
  5
16
330
A
100
AcDbDictionary
281
1
  0
LAYOUT
  5
1A
330
D
100
AcDbPlotSettings
  1

  4
A3
  6

 40
7.5
 41
20.0
 42
7.5
 43
20.0
 44
420.0
 45
297.0
 46
0.0
 47
0.0
 48
0.0
 49
0.0
140
0.0
141
0.0
142
1.0
143
1.0
 70
1024
 72
1
 73
0
 74
5
  7

 75
16
 76
0
 77
2
 78
300
147
1.0
148
0.0
149
0.0
100
AcDbLayout
  1
Model
 70
1
 71
0
 10
0.0
 20
0.0
 11
420.0
 21
297.0
 12
0.0
 22
0.0
 32
0.0
 14
1e+20
 24
1e+20
 34
1e+20
 15
-1e+20
 25
-1e+20
 35
-1e+20
146
0.0
 13
0.0
 23
0.0
 33
0.0
 16
1.0
 26
0.0
 36
0.0
 17
0.0
 27
1.0
 37
0.0
 76
1
330
17
  0
LAYOUT
  5
1E
330
D
100
AcDbPlotSettings
  1

  4
A3
  6

 40
7.5
 41
20.0
 42
7.5
 43
20.0
 44
420.0
 45
297.0
 46
0.0
 47
0.0
 48
0.0
 49
0.0
140
0.0
141
0.0
142
1.0
143
1.0
 70
0
 72
1
 73
0
 74
5
  7

 75
16
 76
0
 77
2
 78
300
147
1.0
148
0.0
149
0.0
100
AcDbLayout
  1
Layout1
 70
1
 71
1
 10
0.0
 20
0.0
 11
420.0
 21
297.0
 12
0.0
 22
0.0
 32
0.0
 14
1e+20
 24
1e+20
 34
1e+20
 15
-1e+20
 25
-1e+20
 35
-1e+20
146
0.0
 13
0.0
 23
0.0
 33
0.0
 16
1.0
 26
0.0
 36
0.0
 17
0.0
 27
1.0
 37
0.0
 76
1
330
1B
  0
MATERIAL
  5
1F
102
{ACAD_REACTORS
330
E
102
}
330
E
100
AcDbMaterial
  1
ByBlock
  2

 70
0
 40
1.0
 71
1
 41
1.0
 91
-1023410177
 42
1.0
 72
1
  3

 73
1
 74
1
 75
1
 44
0.5
 73
0
 45
1.0
 46
1.0
 77
1
  4

 78
1
 79
1
170
1
 48
1.0
171
1
  6

172
1
173
1
174
1
140
1.0
141
1.0
175
1
  7

176
1
177
1
178
1
143
1.0
179
1
  8

270
1
271
1
272
1
145
1.0
146
1.0
273
1
  9

274
1
275
1
276
1
 42
1.0
 72
1
  3

 73
1
 74
1
 75
1
 94
63
  0
MATERIAL
  5
20
102
{ACAD_REACTORS
330
E
102
}
330
E
100
AcDbMaterial
  1
ByLayer
  2

 70
0
 40
1.0
 71
1
 41
1.0
 91
-1023410177
 42
1.0
 72
1
  3

 73
1
 74
1
 75
1
 44
0.5
 73
0
 45
1.0
 46
1.0
 77
1
  4

 78
1
 79
1
170
1
 48
1.0
171
1
  6

172
1
173
1
174
1
140
1.0
141
1.0
175
1
  7

176
1
177
1
178
1
143
1.0
179
1
  8

270
1
271
1
272
1
145
1.0
146
1.0
273
1
  9

274
1
275
1
276
1
 42
1.0
 72
1
  3

 73
1
 74
1
 75
1
 94
63
  0
MATERIAL
  5
21
102
{ACAD_REACTORS
330
E
102
}
330
E
100
AcDbMaterial
  1
Global
  2

 70
0
 40
1.0
 71
1
 41
1.0
 91
-1023410177
 42
1.0
 72
1
  3

 73
1
 74
1
 75
1
 44
0.5
 73
0
 45
1.0
 46
1.0
 77
1
  4

 78
1
 79
1
170
1
 48
1.0
171
1
  6

172
1
173
1
174
1
140
1.0
141
1.0
175
1
  7

176
1
177
1
178
1
143
1.0
179
1
  8

270
1
271
1
272
1
145
1.0
146
1.0
273
1
  9

274
1
275
1
276
1
 42
1.0
 72
1
  3

 73
1
 74
1
 75
1
 94
63
  0
MLINESTYLE
  5
22
102
{ACAD_REACTORS
330
10
102
}
330
10
100
AcDbMlineStyle
  2
Standard
 70
0
  3

 62
256
 51
90.0
 52
90.0
 71
2
 49
0.5
 62
256
  6
BYLAYER
 49
-0.5
 62
256
  6
BYLAYER
  0
MLEADERSTYLE
  5
2C
102
{ACAD_REACTORS
330
F
102
}
330
F
100
AcDbMLeaderStyle
179
2
170
2
171
1
172
0
 90
2
 40
0.0
 41
0.0
173
1
 91
-1056964608
 92
-2
290
1
 42
2.0
291
1
 43
8.0
  3
Standard
 44
4.0
300

342
29
174
1
175
1
176
0
178
1
 93
-1056964608
 45
4.0
292
0
297
0
 46
4.0
 94
-1056964608
 47
1.0
 49
1.0
140
1.0
294
1
141
0.0
177
0
142
1.0
295
0
296
0
143
3.75
271
0
272
9
273
9
  0
DICTIONARY
  5
2D
330
A
100
AcDbDictionary
280
1
281
1
  3
CREATED_BY_EZDXF
350
2E
  3
WRITTEN_BY_EZDXF
350
41
  0
DICTIONARYVAR
  5
2E
330
2D
100
DictionaryVariables
280
0
  1
1.4.3 @ 2025-12-19T14:33:18.468770+00:00
  0
DICTIONARYVAR
  5
41
330
2D
100
DictionaryVariables
280
0
  1
1.4.3 @ 2025-12-19T14:33:18.471586+00:00
  0
ENDSEC
  0
EOF
