  0
SECTION
  2
HEADER
  9
$ACADVER
  1
AC1024
  9
$ACADMAINTVER
 70
6
  9
$DWGCODEPAGE
  3
ANSI_1252
  9
$LASTSAVEDBY
  1
ezdxf
  9
$INSBASE
 10
0.0
 20
0.0
 30
0.0
  9
$EXTMIN
 10
1e+20
 20
1e+20
 30
1e+20
  9
$EXTMAX
 10
-1e+20
 20
-1e+20
 30
-1e+20
  9
$LIMMIN
 10
0.0
 20
0.0
  9
$LIMMAX
 10
420.0
 20
297.0
  9
$ORTHOMODE
 70
0
  9
$REGENMODE
 70
1
  9
$FILLMODE
 70
1
  9
$QTEXTMODE
 70
0
  9
$MIRRTEXT
 70
1
  9
$LTSCALE
 40
1.0
  9
$ATTMODE
 70
1
  9
$TEXTSIZE
 40
2.5
  9
$TRACEWID
 40
1.0
  9
$TEXTSTYLE
  7
Standard
  9
$CLAYER
  8
0
  9
$CELTYPE
  6
ByLayer
  9
$CECOLOR
 62
256
  9
$CELTSCALE
 40
1.0
  9
$DISPSILH
 70
0
  9
$DIMSCALE
 40
1.0
  9
$DIMASZ
 40
2.5
  9
$DIMEXO
 40
0.625
  9
$DIMDLI
 40
3.75
  9
$DIMRND
 40
0.0
  9
$DIMDLE
 40
0.0
  9
$DIMEXE
 40
1.25
  9
$DIMTP
 40
0.0
  9
$DIMTM
 40
0.0
  9
$DIMTXT
 40
2.5
  9
$DIMCEN
 40
2.5
  9
$DIMTSZ
 40
0.0
  9
$DIMTOL
 70
0
  9
$DIMLIM
 70
0
  9
$DIMTIH
 70
0
  9
$DIMTOH
 70
0
  9
$DIMSE1
 70
0
  9
$DIMSE2
 70
0
  9
$DIMTAD
 70
1
  9
$DIMZIN
 70
8
  9
$DIMBLK
  1

  9
$DIMASO
 70
1
  9
$DIMSHO
 70
1
  9
$DIMPOST
  1

  9
$DIMAPOST
  1

  9
$DIMALT
 70
0
  9
$DIMALTD
 70
3
  9
$DIMALTF
 40
0.03937007874
  9
$DIMLFAC
 40
1.0
  9
$DIMTOFL
 70
1
  9
$DIMTVP
 40
0.0
  9
$DIMTIX
 70
0
  9
$DIMSOXD
 70
0
  9
$DIMSAH
 70
0
  9
$DIMBLK1
  1

  9
$DIMBLK2
  1

  9
$DIMSTYLE
  2
ISO-25
  9
$DIMCLRD
 70
0
  9
$DIMCLRE
 70
0
  9
$DIMCLRT
 70
0
  9
$DIMTFAC
 40
1.0
  9
$DIMGAP
 40
0.625
  9
$DIMJUST
 70
0
  9
$DIMSD1
 70
0
  9
$DIMSD2
 70
0
  9
$DIMTOLJ
 70
0
  9
$DIMTZIN
 70
8
  9
$DIMALTZ
 70
0
  9
$DIMALTTZ
 70
0
  9
$DIMUPT
 70
0
  9
$DIMDEC
 70
2
  9
$DIMTDEC
 70
2
  9
$DIMALTU
 70
2
  9
$DIMALTTD
 70
3
  9
$DIMTXSTY
  7
Standard
  9
$DIMAUNIT
 70
0
  9
$DIMADEC
 70
0
  9
$DIMALTRND
 40
0.0
  9
$DIMAZIN
 70
0
  9
$DIMDSEP
 70
44
  9
$DIMATFIT
 70
3
  9
$DIMFRAC
 70
0
  9
$DIMLDRBLK
  1

  9
$DIMLUNIT
 70
2
  9
$DIMLWD
 70
-2
  9
$DIMLWE
 70
-2
  9
$DIMTMOVE
 70
0
  9
$DIMFXL
 40
1.0
  9
$DIMFXLON
 70
0
  9
$DIMJOGANG
 40
0.785398163397
  9
$DIMTFILL
 70
0
  9
$DIMTFILLCLR
 70
0
  9
$DIMARCSYM
 70
0
  9
$DIMLTYPE
  6

  9
$DIMLTEX1
  6

  9
$DIMLTEX2
  6

  9
$DIMTXTDIRECTION
 70
0
  9
$LUNITS
 70
2
  9
$LUPREC
 70
4
  9
$SKETCHINC
 40
1.0
  9
$FILLETRAD
 40
10.0
  9
$AUNITS
 70
0
  9
$AUPREC
 70
2
  9
$MENU
  1
.
  9
$ELEVATION
 40
0.0
  9
$PELEVATION
 40
0.0
  9
$THICKNESS
 40
0.0
  9
$LIMCHECK
 70
0
  9
$CHAMFERA
 40
0.0
  9
$CHAMFERB
 40
0.0
  9
$CHAMFERC
 40
0.0
  9
$CHAMFERD
 40
0.0
  9
$SKPOLY
 70
0
  9
$TDCREATE
 40
2461029.4214699073
  9
$TDUCREATE
 40
2458532.153996898
  9
$TDUPDATE
 40
2461029.4214699073
  9
$TDUUPDATE
 40
2458532.1544311
  9
$TDINDWG
 40
0.0
  9
$TDUSRTIMER
 40
0.0
  9
$USRTIMER
 70
1
  9
$ANGBASE
 50
0.0
  9
$ANGDIR
 70
0
  9
$PDMODE
 70
0
  9
$PDSIZE
 40
0.0
  9
$PLINEWID
 40
0.0
  9
$SPLFRAME
 70
0
  9
$SPLINETYPE
 70
6
  9
$SPLINESEGS
 70
8
  9
$HANDSEED
  5
42
  9
$SURFTAB1
 70
6
  9
$SURFTAB2
 70
6
  9
$SURFTYPE
 70
6
  9
$SURFU
 70
6
  9
$SURFV
 70
6
  9
$UCSBASE
  2

  9
$UCSNAME
  2

  9
$UCSORG
 10
0.0
 20
0.0
 30
0.0
  9
$UCSXDIR
 10
1.0
 20
0.0
 30
0.0
  9
$UCSYDIR
 10
0.0
 20
1.0
 30
0.0
  9
$UCSORTHOREF
  2

  9
$UCSORTHOVIEW
 70
0
  9
$UCSORGTOP
 10
0.0
 20
0.0
 30
0.0
  9
$UCSORGBOTTOM
 10
0.0
 20
0.0
 30
0.0
  9
$UCSORGLEFT
 10
0.0
 20
0.0
 30
0.0
  9
$UCSORGRIGHT
 10
0.0
 20
0.0
 30
0.0
  9
$UCSORGFRONT
 10
0.0
 20
0.0
 30
0.0
  9
$UCSORGBACK
 10
0.0
 20
0.0
 30
0.0
  9
$PUCSBASE
  2

  9
$PUCSNAME
  2

  9
$PUCSORG
 10
0.0
 20
0.0
 30
0.0
  9
$PUCSXDIR
 10
1.0
 20
0.0
 30
0.0
  9
$PUCSYDIR
 10
0.0
 20
1.0
 30
0.0
  9
$PUCSORTHOREF
  2

  9
$PUCSORTHOVIEW
 70
0
  9
$PUCSORGTOP
 10
0.0
 20
0.0
 30
0.0
  9
$PUCSORGBOTTOM
 10
0.0
 20
0.0
 30
0.0
  9
$PUCSORGLEFT
 10
0.0
 20
0.0
 30
0.0
  9
$PUCSORGRIGHT
 10
0.0
 20
0.0
 30
0.0
  9
$PUCSORGFRONT
 10
0.0
 20
0.0
 30
0.0
  9
$PUCSORGBACK
 10
0.0
 20
0.0
 30
0.0
  9
$USERI1
 70
0
  9
$USERI2
 70
0
  9
$USERI3
 70
0
  9
$USERI4
 70
0
  9
$USERI5
 70
0
  9
$USERR1
 40
0.0
  9
$USERR2
 40
0.0
  9
$USERR3
 40
0.0
  9
$USERR4
 40
0.0
  9
$USERR5
 40
0.0
  9
$WORLDVIEW
 70
1
  9
$SHADEDGE
 70
3
  9
$SHADEDIF
 70
70
  9
$TILEMODE
 70
1
  9
$MAXACTVP
 70
64
  9
$PINSBASE
 10
0.0
 20
0.0
 30
0.0
  9
$PLIMCHECK
 70
0
  9
$PEXTMIN
 10
1e+20
 20
1e+20
 30
1e+20
  9
$PEXTMAX
 10
-1e+20
 20
-1e+20
 30
-1e+20
  9
$PLIMMIN
 10
0.0
 20
0.0
  9
$PLIMMAX
 10
420.0
 20
297.0
  9
$UNITMODE
 70
0
  9
$VISRETAIN
 70
1
  9
$PLINEGEN
 70
0
  9
$PSLTSCALE
 70
1
  9
$TREEDEPTH
 70
3020
  9
$CMLSTYLE
  2
Standard
  9
$CMLJUST
 70
0
  9
$CMLSCALE
 40
20.0
  9
$PROXYGRAPHICS
 70
1
  9
$MEASUREMENT
 70
1
  9
$CELWEIGHT
370
-1
  9
$ENDCAPS
280
0
  9
$JOINSTYLE
280
0
  9
$LWDISPLAY
290
0
  9
$INSUNITS
 70
4
  9
$HYPERLINKBASE
  1

  9
$STYLESHEET
  1

  9
$XEDIT
290
1
  9
$CEPSNTYPE
380
0
  9
$PSTYLEMODE
290
1
  9
$FINGERPRINTGUID
  2
{DDD9BCBE-AF17-4205-BE80-2D7B05096F27}
  9
$VERSIONGUID
  2
{BAC39654-DADC-4219-AA87-BC8E17258777}
  9
$EXTNAMES
290
1
  9
$PSVPSCALE
 40
0.0
  9
$OLESTARTUP
290
0
  9
$SORTENTS
280
127
  9
$INDEXCTL
280
0
  9
$HIDETEXT
280
1
  9
$XCLIPFRAME
280
1
  9
$HALOGAP
280
0
  9
$OBSCOLOR
 70
257
  9
$OBSLTYPE
280
0
  9
$INTERSECTIONDISPLAY
280
0
  9
$INTERSECTIONCOLOR
 70
257
  9
$DIMASSOC
280
2
  9
$PROJECTNAME
  1

  9
$CAMERADISPLAY
290
0
  9
$LENSLENGTH
 40
50.0
  9
$CAMERAHEIGHT
 40
0.0
  9
$STEPSPERSEC
 40
24.0
  9
$STEPSIZE
 40
100.0
  9
$3DDWFPREC
 40
2.0
  9
$PSOLWIDTH
 40
0.005
  9
$PSOLHEIGHT
 40
0.08
  9
$LOFTANG1
 40
1.570796326795
  9
$LOFTANG2
 40
1.570796326795
  9
$LOFTMAG1
 40
0.0
  9
$LOFTMAG2
 40
0.0
  9
$LOFTPARAM
 70
7
  9
$LOFTNORMALS
280
1
  9
$LATITUDE
 40
37.795
  9
$LONGITUDE
 40
-122.394
  9
$NORTHDIRECTION
 40
0.0
  9
$TIMEZONE
 70
-8000
  9
$LIGHTGLYPHDISPLAY
280
1
  9
$TILEMODELIGHTSYNCH
280
1
  9
$CMATERIAL
347
20
  9
$SOLIDHIST
280
0
  9
$SHOWHIST
280
1
  9
$DWFFRAME
280
2
  9
$DGNFRAME
280
2
  9
$REALWORLDSCALE
290
1
  9
$INTERFERECOLOR
 62
256
  9
$CSHADOW
280
0
  9
$SHADOWPLANELOCATION
 40
0.0
  0
ENDSEC
  0
SECTION
  2
CLASSES
  0
CLASS
  1
ACDBDICTIONARYWDFLT
  2
AcDbDictionaryWithDefault
  3
ObjectDBX Classes
 90
0
 91
0
280
0
281
0
  0
CLASS
  1
SUN
  2
AcDbSun
  3
SCENEOE
 90
1153
 91
0
280
0
281
0
  0
CLASS
  1
VISUALSTYLE
  2
AcDbVisualStyle
  3
ObjectDBX Classes
 90
4095
 91
0
280
0
281
0
  0
CLASS
  1
MATERIAL
  2
AcDbMaterial
  3
ObjectDBX Classes
 90
1153
 91
0
280
0
281
0
  0
CLASS
  1
SCALE
  2
AcDbScale
  3
ObjectDBX Classes
 90
1153
 91
0
280
0
281
0
  0
CLASS
  1
TABLESTYLE
  2
AcDbTableStyle
  3
ObjectDBX Classes
 90
4095
 91
0
280
0
281
0
  0
CLASS
  1
MLEADERSTYLE
  2
AcDbMLeaderStyle
  3
ACDB_MLEADERSTYLE_CLASS
 90
4095
 91
0
280
0
281
0
  0
CLASS
  1
DICTIONARYVAR
  2
AcDbDictionaryVar
  3
ObjectDBX Classes
 90
0
 91
0
280
0
281
0
  0
CLASS
  1
CELLSTYLEMAP
  2
AcDbCellStyleMap
  3
ObjectDBX Classes
 90
1152
 91
0
280
0
281
0
  0
CLASS
  1
MENTALRAYRENDERSETTINGS
  2
AcDbMentalRayRenderSettings
  3
SCENEOE
 90
1024
 91
0
280
0
281
0
  0
CLASS
  1
ACDBDETAILVIEWSTYLE
  2
AcDbDetailViewStyle
  3
ObjectDBX Classes
 90
1025
 91
0
280
0
281
0
  0
CLASS
  1
ACDBSECTIONVIEWSTYLE
  2
AcDbSectionViewStyle
  3
ObjectDBX Classes
 90
1025
 91
0
280
0
281
0
  0
CLASS
  1
RASTERVARIABLES
  2
AcDbRasterVariables
  3
ISM
 90
0
 91
0
280
0
281
0
  0
CLASS
  1
ACDBPLACEHOLDER
  2
AcDbPlaceHolder
  3
ObjectDBX Classes
 90
0
 91
0
280
0
281
0
  0
CLASS
  1
LAYOUT
  2
AcDbLayout
  3
ObjectDBX Classes
 90
0
 91
0
280
0
281
0
  0
ENDSEC
  0
SECTION
  2
TABLES
  0
TABLE
  2
VPORT
  5
8
330
0
100
AcDbSymbolTable
 70
1
  0
VPORT
  5
23
330
8
100
AcDbSymbolTableRecord
100
AcDbViewportTableRecord
  2
*Active
 70
0
 10
0.0
 20
0.0
 11
1.0
 21
1.0
 12
0.0
 22
0.0
 13
0.0
 23
0.0
 14
0.5
 24
0.5
 15
0.5
 25
0.5
 16
0.0
 26
0.0
 36
1.0
 17
0.0
 27
0.0
 37
0.0
 40
1000.0
 41
1.34
 42
50.0
 43
0.0
 44
0.0
 50
0.0
 51
0.0
 71
0
 72
1000
 73
1
 74
3
 75
0
 76
0
 77
0
 78
0
281
0
 65
0
146
0.0
  0
ENDTAB
  0
TABLE
  2
LTYPE
  5
2
330
0
100
AcDbSymbolTable
 70
3
  0
LTYPE
  5
24
330
2
100
AcDbSymbolTableRecord
100
AcDbLinetypeTableRecord
  2
ByBlock
 70
0
  3

 72
65
 73
0
 40
0.0
  0
LTYPE
  5
25
330
2
100
AcDbSymbolTableRecord
100
AcDbLinetypeTableRecord
  2
ByLayer
 70
0
  3

 72
65
 73
0
 40
0.0
  0
LTYPE
  5
26
330
2
100
AcDbSymbolTableRecord
100
AcDbLinetypeTableRecord
  2
Continuous
 70
0
  3

 72
65
 73
0
 40
0.0
  0
ENDTAB
  0
TABLE
  2
LAYER
  5
1
330
0
100
AcDbSymbolTable
 70
3
  0
LAYER
  5
27
330
1
100
AcDbSymbolTableRecord
100
AcDbLayerTableRecord
  2
0
 70
0
 62
7
  6
Continuous
370
-3
390
13
347
21
  0
LAYER
  5
28
330
1
100
AcDbSymbolTableRecord
100
AcDbLayerTableRecord
  2
Defpoints
 70
0
 62
7
  6
Continuous
290
0
370
-3
390
13
347
21
  0
LAYER
  5
2F
330
1
100
AcDbSymbolTableRecord
100
AcDbLayerTableRecord
  2
ROADS
 70
0
 62
7
  6
Continuous
370
-3
390
13
347
21
  0
ENDTAB
  0
TABLE
  2
STYLE
  5
5
330
0
100
AcDbSymbolTable
 70
1
  0
STYLE
  5
29
330
5
100
AcDbSymbolTableRecord
100
AcDbTextStyleTableRecord
  2
Standard
 70
0
 40
0.0
 41
1.0
 50
0.0
 71
0
 42
2.5
  3
txt
  4

  0
ENDTAB
  0
TABLE
  2
VIEW
  5
7
330
0
100
AcDbSymbolTable
 70
0
  0
ENDTAB
  0
TABLE
  2
UCS
  5
6
330
0
100
AcDbSymbolTable
 70
0
  0
ENDTAB
  0
TABLE
  2
APPID
  5
3
330
0
100
AcDbSymbolTable
 70
3
  0
APPID
  5
2A
330
3
100
AcDbSymbolTableRecord
100
AcDbRegAppTableRecord
  2
ACAD
 70
0
  0
APPID
  5
3F
330
3
100
AcDbSymbolTableRecord
100
AcDbRegAppTableRecord
  2
HATCHBACKGROUNDCOLOR
 70
0
  0
APPID
  5
40
330
3
100
AcDbSymbolTableRecord
100
AcDbRegAppTableRecord
  2
EZDXF
 70
0
  0
ENDTAB
  0
TABLE
  2
DIMSTYLE
  5
4
330
0
100
AcDbSymbolTable
 70
1
100
AcDbDimStyleTable
  0
DIMSTYLE
105
2B
330
4
100
AcDbSymbolTableRecord
100
AcDbDimStyleTableRecord
  2
Standard
 70
0
 40
1.0
 41
2.5
 42
0.625
 43
3.75
 44
1.25
 45
0.0
 46
0.0
 47
0.0
 48
0.0
 49
2.5
140
2.5
141
2.5
142
0.0
143
0.03937007874
144
1.0
145
0.0
146
1.0
147
0.625
148
0.0
 69
0
 70
0
 71
0
 72
0
 73
0
 74
0
 75
0
 76
0
 77
1
 78
8
 79
3
170
0
171
3
172
1
173
0
174
0
175
0
176
0
177
0
178
0
179
2
271
2
272
2
273
2
274
3
275
0
276
0
277
2
278
44
279
0
280
0
281
0
282
0
283
0
284
8
285
0
286
0
288
0
289
3
290
0
371
-2
372
-2
  0
ENDTAB
  0
TABLE
  2
BLOCK_RECORD
  5
9
330
0
100
AcDbSymbolTable
 70
2
  0
BLOCK_RECORD
  5
17
330
9
100
AcDbSymbolTableRecord
100
AcDbBlockTableRecord
  2
*Model_Space
340
1A
 70
0
280
1
281
0
  0
BLOCK_RECORD
  5
1B
330
9
100
AcDbSymbolTableRecord
100
AcDbBlockTableRecord
  2
*Paper_Space
340
1E
 70
0
280
1
281
0
  0
ENDTAB
  0
ENDSEC
  0
SECTION
  2
BLOCKS
  0
BLOCK
  5
18
330
17
100
AcDbEntity
  8
0
100
AcDbBlockBegin
  2
*Model_Space
 70
0
 10
0.0
 20
0.0
 30
0.0
  3
*Model_Space
  1

  0
ENDBLK
  5
19
330
17
100
AcDbEntity
  8
0
100
AcDbBlockEnd
  0
BLOCK
  5
1C
330
1B
100
AcDbEntity
  8
0
100
AcDbBlockBegin
  2
*Paper_Space
 70
0
 10
0.0
 20
0.0
 30
0.0
  3
*Paper_Space
  1

  0
ENDBLK
  5
1D
330
1B
100
AcDbEntity
  8
0
100
AcDbBlockEnd
  0
ENDSEC
  0
SECTION
  2
ENTITIES
  0
LWPOLYLINE
  5
30
330
17
100
AcDbEntity
  8
ROADS
100
AcDbPolyline
 90
16
 70
0
 10
36.367268715884414
 20
17.72415564323211
 10
33.917064267282086
 20
18.116077395497783
 10
33.228381945535986
 20
18.282313869056534
 10
32.573713567600684
 20
18.66597884281528
 10
32.14193656284468
 20
19.223036164867466
 10
32.03709358303491
 20
20.093851069478813
 10
31.92944945490462
 20
20.978427271575633
 10
31.672143973836242
 20
22.693635389599635
 10
31.43604718715404
 20
23.52481775747161
 10
31.027879861083317
 20
24.313615329075823
 10
30.480455447313748
 20
25.059477652545716
 10
29.711340152485995
 20
25.6011223213954
 10
29.57888585354931
 20
25.9968972369617
 10
29.546872729902468
 20
26.39102079681097
 10
29.439628765793596
 20
27.999991698330074
 10
29.27316052298925
 20
30.603078729845844
  0
LWPOLYLINE
  5
31
330
17
100
AcDbEntity
  8
ROADS
100
AcDbPolyline
 90
6
 70
0
 10
25.77372594796208
 20
93.32432038921348
 10
26.213906397679644
 20
93.97935814930275
 10
27.69451336478221
 20
95.7958494167979
 10
28.03065116273284
 20
96.9132667722581
 10
28.430815207920286
 20
98.01417057074357
 10
29.49435209350591
 20
100.0
  0
LWPOLYLINE
  5
32
330
17
100
AcDbEntity
  8
ROADS
100
AcDbPolyline
 90
54
 70
0
 10
26.614070442810224
 20
6.11622599196321
 10
26.90218855534746
 20
6.2153073338507605
 10
28.17951218757123
 20
6.656769757040654
 10
29.315177747740186
 20
7.239147866441068
 10
30.25156161347199
 20
7.938221778476013
 10
31.051889703790014
 20
8.785917703283614
 10
34.47449278221262
 20
14.27557449445322
 10
35.70699804130807
 20
16.312796973582426
 10
36.367268715884414
 20
17.72415564323211
 10
36.74622406662881
 20
18.69955640867044
 10
36.98632249375265
 20
19.844496359101576
 10
37.00232905557608
 20
22.161898854934794
 10
36.51733023278705
 20
28.03522061986315
 10
36.242817697831
 20
33.97789932408541
 10
35.871465463891596
 20
35.60173242686223
 10
35.28962694223295
 20
37.20189609796873
 10
34.80502828352221
 20
38.59233759547648
 10
34.23879615955183
 20
40.736898194921935
 10
33.73699044695342
 20
43.37851685940484
 10
33.45687561529947
 20
45.335923813110504
 10
33.00068860381535
 20
53.58719778275338
 10
33.07351846003514
 20
55.13121536014577
 10
33.28600556803206
 20
56.67468248563248
 10
33.98909379540218
 20
59.609141560493505
 10
35.290027106254364
 20
61.59297020535875
 10
40.02636874495377
 20
66.92299594575951
 10
41.09520690956539
 20
67.70683945029086
 10
41.872725649354706
 20
67.94903828593341
 10
42.98678235111607
 20
68.11857747092623
 10
44.170067432733866
 20
67.82023254153044
 10
45.44659073680107
 20
67.07657202564414
 10
46.89838589271246
 20
66.44850640862013
 10
47.640690196513
 20
66.36924133510227
 10
48.90640907137641
 20
66.32190247180075
 10
49.9148224652283
 20
66.58501847962435
 10
51.19214609745207
 20
67.05675575727446
 10
53.26899749189417
 20
68.13564147980664
 10
54.132551501349305
 20
68.4235278231119
 10
55.80243606189867
 20
68.95031029066476
 10
56.81845257255555
 20
69.40718536705715
 10
57.70281511243232
 20
70.13928639304157
 10
64.64566129618999
 20
79.62907713602459
 10
66.4544027803599
 20
81.16483793491005
 10
67.4868260169185
 20
81.7593259860789
 10
69.29396684494588
 20
82.51069282856646
 10
70.78417774913112
 20
83.12995121521698
 10
71.31639592923383
 20
83.43600247117489
 10
72.58491595241776
 20
84.16480078576437
 10
73.64134903168305
 20
84.98497411564014
 10
80.56018537273403
 20
91.36471162788511
 10
82.18485139619051
 20
93.07661703455328
 10
83.95837844437165
 20
95.4804404785217
 10
84.66586847626169
 20
96.43987813893008
 10
87.31093090147075
 20
100.0
  0
LWPOLYLINE
  5
33
330
17
100
AcDbEntity
  8
ROADS
100
AcDbPolyline
 90
28
 70
0
 10
25.77372594796208
 20
93.32432038921348
 10
24.425173115717918
 20
92.6913007050775
 10
23.87694837384865
 20
92.34451600852974
 10
23.432766283689446
 20
92.06378553992006
 10
22.5404004629294
 20
91.3041619189647
 10
21.063795136268475
 20
89.46565257547715
 10
20.42753430445569
 20
88.46383011887924
 10
19.75525870855443
 20
87.4950347761917
 10
19.02696014629963
 20
86.55926654749274
 10
18.47873540443036
 20
85.97028301530243
 10
18.066566437918
 20
85.43634467301489
 10
16.99412679682929
 20
83.06389698727891
 10
16.6139709539069
 20
81.95198415079724
 10
16.381875807723205
 20
80.80153968138757
 10
15.965705200769204
 20
79.69513136392355
 10
14.541121199906444
 20
77.7960723115156
 10
13.904860368093662
 20
76.79424985491768
 10
13.048509311422096
 20
75.99059008201665
 10
12.328214030107441
 20
75.0438128153215
 10
10.199341309810311
 20
74.04749487766301
 10
9.170919713693358
 20
73.51906105439312
 10
8.178512881664886
 20
72.88604137025713
 10
7.014035510191026
 20
72.65485157257167
 10
5.84155485783389
 20
72.59430186365125
 10
4.673075845918392
 20
72.73191483846682
 10
3.516601755384676
 20
72.99062723112323
 10
2.3481227434691774
 20
73.19979895285542
 10
1.5638012149177052
 20
73.30988933270005
  0
LWPOLYLINE
  5
34
330
17
100
AcDbEntity
  8
ROADS
100
AcDbPolyline
 90
31
 70
0
 10
33.28600556803206
 20
56.67468248563248
 10
32.14033590670214
 20
57.91925422981773
 10
31.708158737924723
 20
58.45869709108382
 10
31.408035704005705
 20
58.82749986358486
 10
30.651725658659434
 20
59.59262800351877
 10
28.85498909581443
 20
61.04031649855199
 10
27.102270577941184
 20
62.55405922144505
 10
25.833750554757255
 20
63.48982745018312
 10
25.693693138901843
 20
63.61092686802395
 10
24.94538637443885
 20
64.23293751416374
 10
24.089035317767287
 20
65.02008373005093
 10
23.316718710597595
 20
65.91181580684332
 10
22.956571069940267
 20
67.00721508635024
 10
22.85653005867184
 20
68.16866859375611
 10
22.80450873275994
 20
69.33562662014054
 10
22.68445951922645
 20
70.49708012754641
 10
22.524393901162846
 20
71.6475245969561
 10
22.316308597685847
 20
73.99244968776026
 10
22.16024462006388
 20
75.14839867614847
 10
21.944156035646735
 20
76.30434766457581
 10
21.80009697940655
 20
77.47130569096024
 10
21.848116664819948
 20
78.64376823636232
 10
22.01218392332519
 20
79.79971722478965
 10
22.492380777516004
 20
82.08959712561281
 10
22.7764972496116
 20
83.22903255706541
 10
23.12463996888715
 20
84.34644991252561
 10
23.936972980586958
 20
86.53724847150035
 10
24.64126170013506
 20
88.78309222041695
 10
25.301532374654542
 20
91.04544952630829
 10
25.67768657713529
 20
92.5867148442114
 10
25.77372594796208
 20
93.32432038921348
  0
LWPOLYLINE
  5
35
330
17
100
AcDbEntity
  8
ROADS
100
AcDbPolyline
 90
16
 70
0
 10
51.19214609745207
 20
67.05675575727446
 10
51.0320804793316
 20
66.58887164292499
 10
50.89602470397469
 20
66.19805079447066
 10
50.69994432187947
 20
65.62007630023743
 10
50.135713018186784
 20
64.59623576764713
 10
49.547471871787394
 20
63.58340427305301
 10
49.139304545659805
 20
62.49350951252464
 10
48.78716018594262
 20
61.370587638085894
 10
48.178910837278174
 20
59.09171677521981
 10
47.72672546623569
 20
57.99631749571289
 10
47.31855814016497
 20
56.91192725420216
 10
47.27854173563485
 20
55.75047374679629
 10
47.39859094916834
 20
54.605533796365144
 10
47.98683209556773
 20
53.63123393469906
 10
48.95923072533114
 20
53.058763959483485
 10
49.33138328737025
 20
52.92665550368557
  0
LWPOLYLINE
  5
36
330
17
100
AcDbEntity
  8
ROADS
100
AcDbPolyline
 90
19
 70
0
 10
25.833750554757255
 20
63.48982745018312
 10
25.670483624294846
 20
62.27938372371958
 10
25.28752663305194
 20
60.901602619925065
 10
24.79332403731539
 20
59.27336590198106
 10
24.39315999212794
 20
57.59999212828002
 10
24.12665073805517
 20
55.769189111393736
 10
23.771305065939178
 20
54.817457777586604
 10
22.83091955976574
 20
54.002788966689366
 10
22.24227824928807
 20
53.51618948778156
 10
21.95055866038748
 20
52.296388079038856
 10
21.84211420410062
 20
49.78797877420433
 10
21.474763610659718
 20
46.939390195611956
 10
21.44034950277064
 20
45.57316858168019
 10
21.12141875876455
 20
44.2096992272377
 10
20.195839322293413
 20
41.48000825890256
 10
19.204632982386055
 20
39.898009500487824
 10
18.403904727989747
 20
36.88703761159821
 10
17.806459808529098
 20
33.71423286435614
 10
17.544752522997662
 20
29.26107699949007
  0
LWPOLYLINE
  5
37
330
17
100
AcDbEntity
  8
ROADS
100
AcDbPolyline
 90
17
 70
0
 10
18.066566437918
 20
85.43634467301489
 10
17.470322010578467
 20
85.61799379977613
 10
16.673995560702078
 20
86.38312193974915
 10
16.30984627960311
 20
87.4840257382346
 10
15.725606773645364
 20
88.60694761267335
 10
15.22140007674785
 20
89.57023843634325
 10
14.777217986588647
 20
90.66013319687163
 10
14.465090031344713
 20
91.79956862828512
 10
14.220989963779234
 20
92.93349954072005
 10
14.128952233394083
 20
93.58853730084843
 10
14.060924345715629
 20
94.09495304812593
 10
14.28501621101605
 20
95.20136136562905
 10
14.469091671786352
 20
96.32978775908545
 10
14.365049020076285
 20
97.49124126649133
 10
14.47709495266963
 20
98.64719025487955
 10
14.757209784323589
 20
99.7811211673145
 10
14.81588657282203
 20
100.0
  0
LWPOLYLINE
  5
38
330
17
100
AcDbEntity
  8
ROADS
100
AcDbPolyline
 90
38
 70
0
 10
68.7187695321139
 20
0.0
 10
68.72733455695409
 20
0.01171442934938786
 10
69.48364460235722
 20
0.9144555440988631
 10
70.31198417582358
 20
1.7621514689455766
 10
72.15273878364034
 20
3.259380634903016
 10
72.98908163804686
 20
4.107076559710618
 10
73.58532606538638
 20
5.114403535326185
 10
74.05751963869392
 20
6.182280219862169
 10
75.085941234754
 20
8.312529069955595
 10
75.67018074071176
 20
9.330865083567359
 10
76.31844649390632
 20
10.316173983190533
 10
77.03874177522097
 20
11.262951249885685
 10
77.87908627006912
 20
12.077620060782918
 10
77.93711005664348
 20
12.113949886127346
 10
78.88349802347938
 20
12.70513522590125
 10
79.93993110274467
 20
13.233569049210255
 10
80.89232153024302
 20
13.91612940427046
 10
81.78068571056143
 20
14.692266582200562
 10
82.58101380087945
 20
15.556476064022014
 10
83.20126807092568
 20
16.552794001641384
 10
83.70147312738155
 20
17.60966164818117
 10
84.25770115019097
 20
18.63900669975002
 10
85.00200627421232
 20
19.552756852495694
 10
85.93038685900397
 20
20.28485787851923
 10
86.65868542120191
 20
20.636596642139853
 10
86.99082157871091
 20
20.796778144814382
 10
88.10727926477136
 20
21.138058322344484
 10
89.26775499574673
 20
21.303193892091883
 10
90.4202274458388
 20
21.50135657582787
 10
91.52468021051749
 20
21.881168386325108
 10
92.59311821116455
 20
22.349052500674585
 10
94.66996960560665
 20
23.416929185210567
 10
95.7224010444303
 20
23.890317818538588
 10
96.85486529225732
 20
24.303156742985305
 10
97.93130657378767
 20
24.771040857334782
 10
98.9557265294061
 20
25.354519870546547
 10
99.91612023784461
 20
26.04808926360295
 10
100.0
 20
26.11803328984107
  0
LWPOLYLINE
  5
39
330
17
100
AcDbEntity
  8
ROADS
100
AcDbPolyline
 90
4
 70
0
 10
25.739735198896692
 20
0.0
 10
27.198309948767974
 20
2.466729899998176
 10
27.606477274838696
 20
3.121767660087444
 10
28.170708578531386
 20
4.338266357396085
  0
LWPOLYLINE
  5
3A
330
17
100
AcDbEntity
  8
ROADS
100
AcDbPolyline
 90
5
 70
0
 10
84.66586847626169
 20
96.43987813893008
 10
84.06962404892215
 20
98.28939652037471
 10
83.90555679041691
 20
99.09305629327575
 10
83.83752890273846
 20
99.4288319518273
 10
83.7948423088515
 20
100.0
  0
LWPOLYLINE
  5
3B
330
17
100
AcDbEntity
  8
ROADS
100
AcDbPolyline
 90
8
 70
0
 10
71.31639592923383
 20
83.43600247117489
 10
71.39242709779558
 20
82.97142106822037
 10
71.34840905282381
 20
82.26684263716777
 10
70.48885668381031
 20
78.46322001341241
 10
69.90341668573144
 20
76.07646057828529
 10
69.31797668765257
 20
73.73208593938682
 10
69.26075322917792
 20
72.26623253170094
 10
69.26035306515651
 20
70.52955678959022
  0
LWPOLYLINE
  5
3C
330
17
100
AcDbEntity
  8
ROADS
100
AcDbPolyline
 90
29
 70
0
 10
83.95837844437165
 20
95.4804404785217
 10
84.74790210548588
 20
95.09842686047999
 10
85.31653521369849
 20
94.74668809685936
 10
85.82114207467428
 20
94.33109691292337
 10
86.07884771976408
 20
93.92651476698359
 10
86.27212695359565
 20
93.46853878677985
 10
86.54023686386783
 20
92.95716897239036
 10
86.92679533147408
 20
92.40286390986657
 10
87.32375806431959
 20
91.94488792970193
 10
87.96802217701565
 20
91.6041582040775
 10
88.68711696620919
 20
91.41260094313141
 10
90.07168456248498
 20
91.2953546885912
 10
90.96244972704561
 20
91.15664080996427
 10
91.61711810498092
 20
90.93315733888006
 10
92.02488526697336
 20
90.67719720575204
 10
92.27178648285935
 20
90.44325514853819
 10
92.44345685822645
 20
90.14491021918153
 10
92.48667457515538
 20
89.49482652616513
 10
92.48667457515538
 20
87.38549484825273
 10
92.51868769874535
 20
86.1926655825753
 10
92.63673609205803
 20
85.41487704896728
 10
92.85162418435405
 20
84.93543344471593
 10
93.48468370376803
 20
83.88076760575973
 10
93.72318147469247
 20
83.5339829092511
 10
94.38625329758933
 20
82.57014163367552
 10
97.17699734860534
 20
78.29863489553159
 10
97.99253167270396
 20
77.09479659189707
 10
98.42190769316086
 20
76.65773778387435
 10
98.69041776745445
 20
76.51902390528655
  0
LWPOLYLINE
  5
3D
330
17
100
AcDbEntity
  8
ROADS
100
AcDbPolyline
 90
7
 70
0
 10
33.587257816344724
 20
0.0
 10
31.90423912001994
 20
1.3878441774659949
 10
30.031471388613205
 20
2.8190191154853634
 10
28.170708578531386
 20
4.338266357396085
 10
27.234324712856452
 20
5.307061700083631
 10
26.94220495987758
 20
5.57678313069712
 10
26.614070442810224
 20
6.11622599196321
  0
LWPOLYLINE
  5
3E
330
17
100
AcDbEntity
  8
ROADS
100
AcDbPolyline
 90
16
 70
0
 10
4.322226456879945
 20
0.0
 10
4.793125059508745
 20
0.5566618095940209
 10
6.10166148722279
 20
1.6135294561338076
 10
7.798357038742499
 20
2.4502163429843242
 10
9.330985331756963
 20
2.7694784445611442
 10
11.286587020544454
 20
2.6478285748146355
 10
12.76039119888486
 20
2.3759053366175515
 10
14.05692270527399
 20
2.279576254219273
 10
15.203792858725027
 20
2.205815699719065
 10
16.38587744816484
 20
2.378657596106823
 10
17.70201699274075
 20
2.6593880647165093
 10
18.98294210138474
 20
3.220849001935882
 10
21.968165878353435
 20
5.125412573322382
 10
23.436767924131082
 20
5.736414181505086
 10
25.037424104824
 20
6.0666853210389915
 10
26.614070442810224
 20
6.11622599196321
  0
ENDSEC
  0
SECTION
  2
OBJECTS
  0
DICTIONARY
  5
A
330
0
100
AcDbDictionary
281
1
  3
ACAD_COLOR
350
B
  3
ACAD_GROUP
350
C
  3
ACAD_LAYOUT
350
D
  3
ACAD_MATERIAL
350
E
  3
ACAD_MLEADERSTYLE
350
F
  3
ACAD_MLINESTYLE
350
10
  3
ACAD_PLOTSETTINGS
350
11
  3
ACAD_PLOTSTYLENAME
350
12
  3
ACAD_SCALELIST
350
14
  3
ACAD_TABLESTYLE
350
15
  3
ACAD_VISUALSTYLE
350
16
  3
EZDXF_META
350
2D
  0
DICTIONARY
  5
B
330
A
100
AcDbDictionary
281
1
  0
DICTIONARY
  5
C
330
A
100
AcDbDictionary
281
1
  0
DICTIONARY
  5
D
330
A
100
AcDbDictionary
281
1
  3
Model
350
1A
  3
Layout1
350
1E
  0
DICTIONARY
  5
E
330
A
100
AcDbDictionary
281
1
  3
ByBlock
350
1F
  3
ByLayer
350
20
  3
Global
350
21
  0
DICTIONARY
  5
F
330
A
100
AcDbDictionary
281
1
  3
Standard
350
2C
  0
DICTIONARY
  5
10
330
A
100
AcDbDictionary
281
1
  3
Standard
350
22
  0
DICTIONARY
  5
11
330
A
100
AcDbDictionary
281
1
  0
ACDBDICTIONARYWDFLT
  5
12
330
A
100
AcDbDictionary
281
1
  3
Normal
350
13
100
AcDbDictionaryWithDefault
340
13
  0
ACDBPLACEHOLDER
  5
13
330
12
  0
DICTIONARY
  5
14
330
A
100
AcDbDictionary
281
1
  0
DICTIONARY
  5
15
330
A
100
AcDbDictionary
281
1
  0
DICTIONARY
  5
16
330
A
100
AcDbDictionary
281
1
  0
LAYOUT
  5
1A
330
D
100
AcDbPlotSettings
  1

  4
A3
  6

 40
7.5
 41
20.0
 42
7.5
 43
20.0
 44
420.0
 45
297.0
 46
0.0
 47
0.0
 48
0.0
 49
0.0
140
0.0
141
0.0
142
1.0
143
1.0
 70
1024
 72
1
 73
0
 74
5
  7

 75
16
 76
0
 77
2
 78
300
147
1.0
148
0.0
149
0.0
100
AcDbLayout
  1
Model
 70
1
 71
0
 10
0.0
 20
0.0
 11
420.0
 21
297.0
 12
0.0
 22
0.0
 32
0.0
 14
1e+20
 24
1e+20
 34
1e+20
 15
-1e+20
 25
-1e+20
 35
-1e+20
146
0.0
 13
0.0
 23
0.0
 33
0.0
 16
1.0
 26
0.0
 36
0.0
 17
0.0
 27
1.0
 37
0.0
 76
1
330
17
  0
LAYOUT
  5
1E
330
D
100
AcDbPlotSettings
  1

  4
A3
  6

 40
7.5
 41
20.0
 42
7.5
 43
20.0
 44
420.0
 45
297.0
 46
0.0
 47
0.0
 48
0.0
 49
0.0
140
0.0
141
0.0
142
1.0
143
1.0
 70
0
 72
1
 73
0
 74
5
  7

 75
16
 76
0
 77
2
 78
300
147
1.0
148
0.0
149
0.0
100
AcDbLayout
  1
Layout1
 70
1
 71
1
 10
0.0
 20
0.0
 11
420.0
 21
297.0
 12
0.0
 22
0.0
 32
0.0
 14
1e+20
 24
1e+20
 34
1e+20
 15
-1e+20
 25
-1e+20
 35
-1e+20
146
0.0
 13
0.0
 23
0.0
 33
0.0
 16
1.0
 26
0.0
 36
0.0
 17
0.0
 27
1.0
 37
0.0
 76
1
330
1B
  0
MATERIAL
  5
1F
102
{ACAD_REACTORS
330
E
102
}
330
E
100
AcDbMaterial
  1
ByBlock
  2

 70
0
 40
1.0
 71
1
 41
1.0
 91
-1023410177
 42
1.0
 72
1
  3

 73
1
 74
1
 75
1
 44
0.5
 73
0
 45
1.0
 46
1.0
 77
1
  4

 78
1
 79
1
170
1
 48
1.0
171
1
  6

172
1
173
1
174
1
140
1.0
141
1.0
175
1
  7

176
1
177
1
178
1
143
1.0
179
1
  8

270
1
271
1
272
1
145
1.0
146
1.0
273
1
  9

274
1
275
1
276
1
 42
1.0
 72
1
  3

 73
1
 74
1
 75
1
 94
63
  0
MATERIAL
  5
20
102
{ACAD_REACTORS
330
E
102
}
330
E
100
AcDbMaterial
  1
ByLayer
  2

 70
0
 40
1.0
 71
1
 41
1.0
 91
-1023410177
 42
1.0
 72
1
  3

 73
1
 74
1
 75
1
 44
0.5
 73
0
 45
1.0
 46
1.0
 77
1
  4

 78
1
 79
1
170
1
 48
1.0
171
1
  6

172
1
173
1
174
1
140
1.0
141
1.0
175
1
  7

176
1
177
1
178
1
143
1.0
179
1
  8

270
1
271
1
272
1
145
1.0
146
1.0
273
1
  9

274
1
275
1
276
1
 42
1.0
 72
1
  3

 73
1
 74
1
 75
1
 94
63
  0
MATERIAL
  5
21
102
{ACAD_REACTORS
330
E
102
}
330
E
100
AcDbMaterial
  1
Global
  2

 70
0
 40
1.0
 71
1
 41
1.0
 91
-1023410177
 42
1.0
 72
1
  3

 73
1
 74
1
 75
1
 44
0.5
 73
0
 45
1.0
 46
1.0
 77
1
  4

 78
1
 79
1
170
1
 48
1.0
171
1
  6

172
1
173
1
174
1
140
1.0
141
1.0
175
1
  7

176
1
177
1
178
1
143
1.0
179
1
  8

270
1
271
1
272
1
145
1.0
146
1.0
273
1
  9

274
1
275
1
276
1
 42
1.0
 72
1
  3

 73
1
 74
1
 75
1
 94
63
  0
MLINESTYLE
  5
22
102
{ACAD_REACTORS
330
10
102
}
330
10
100
AcDbMlineStyle
  2
Standard
 70
0
  3

 62
256
 51
90.0
 52
90.0
 71
2
 49
0.5
 62
256
  6
BYLAYER
 49
-0.5
 62
256
  6
BYLAYER
  0
MLEADERSTYLE
  5
2C
102
{ACAD_REACTORS
330
F
102
}
330
F
100
AcDbMLeaderStyle
179
2
170
2
171
1
172
0
 90
2
 40
0.0
 41
0.0
173
1
 91
-1056964608
 92
-2
290
1
 42
2.0
291
1
 43
8.0
  3
Standard
 44
4.0
300

342
29
174
1
175
1
176
0
178
1
 93
-1056964608
 45
4.0
292
0
297
0
 46
4.0
 94
-1056964608
 47
1.0
 49
1.0
140
1.0
294
1
141
0.0
177
0
142
1.0
295
0
296
0
143
3.75
271
0
272
9
273
9
  0
DICTIONARY
  5
2D
330
A
100
AcDbDictionary
280
1
281
1
  3
CREATED_BY_EZDXF
350
2E
  3
WRITTEN_BY_EZDXF
350
41
  0
DICTIONARYVAR
  5
2E
330
2D
100
DictionaryVariables
280
0
  1
1.4.3 @ 2025-12-19T15:06:55.406966+00:00
  0
DICTIONARYVAR
  5
41
330
2D
100
DictionaryVariables
280
0
  1
1.4.3 @ 2025-12-19T15:06:55.408778+00:00
  0
ENDSEC
  0
EOF
