  0
SECTION
  2
HEADER
  9
$ACADVER
  1
AC1024
  9
$ACADMAINTVER
 70
6
  9
$DWGCODEPAGE
  3
ANSI_1252
  9
$LASTSAVEDBY
  1
ezdxf
  9
$INSBASE
 10
0.0
 20
0.0
 30
0.0
  9
$EXTMIN
 10
1e+20
 20
1e+20
 30
1e+20
  9
$EXTMAX
 10
-1e+20
 20
-1e+20
 30
-1e+20
  9
$LIMMIN
 10
0.0
 20
0.0
  9
$LIMMAX
 10
420.0
 20
297.0
  9
$ORTHOMODE
 70
0
  9
$REGENMODE
 70
1
  9
$FILLMODE
 70
1
  9
$QTEXTMODE
 70
0
  9
$MIRRTEXT
 70
1
  9
$LTSCALE
 40
1.0
  9
$ATTMODE
 70
1
  9
$TEXTSIZE
 40
2.5
  9
$TRACEWID
 40
1.0
  9
$TEXTSTYLE
  7
Standard
  9
$CLAYER
  8
0
  9
$CELTYPE
  6
ByLayer
  9
$CECOLOR
 62
256
  9
$CELTSCALE
 40
1.0
  9
$DISPSILH
 70
0
  9
$DIMSCALE
 40
1.0
  9
$DIMASZ
 40
2.5
  9
$DIMEXO
 40
0.625
  9
$DIMDLI
 40
3.75
  9
$DIMRND
 40
0.0
  9
$DIMDLE
 40
0.0
  9
$DIMEXE
 40
1.25
  9
$DIMTP
 40
0.0
  9
$DIMTM
 40
0.0
  9
$DIMTXT
 40
2.5
  9
$DIMCEN
 40
2.5
  9
$DIMTSZ
 40
0.0
  9
$DIMTOL
 70
0
  9
$DIMLIM
 70
0
  9
$DIMTIH
 70
0
  9
$DIMTOH
 70
0
  9
$DIMSE1
 70
0
  9
$DIMSE2
 70
0
  9
$DIMTAD
 70
1
  9
$DIMZIN
 70
8
  9
$DIMBLK
  1

  9
$DIMASO
 70
1
  9
$DIMSHO
 70
1
  9
$DIMPOST
  1

  9
$DIMAPOST
  1

  9
$DIMALT
 70
0
  9
$DIMALTD
 70
3
  9
$DIMALTF
 40
0.03937007874
  9
$DIMLFAC
 40
1.0
  9
$DIMTOFL
 70
1
  9
$DIMTVP
 40
0.0
  9
$DIMTIX
 70
0
  9
$DIMSOXD
 70
0
  9
$DIMSAH
 70
0
  9
$DIMBLK1
  1

  9
$DIMBLK2
  1

  9
$DIMSTYLE
  2
ISO-25
  9
$DIMCLRD
 70
0
  9
$DIMCLRE
 70
0
  9
$DIMCLRT
 70
0
  9
$DIMTFAC
 40
1.0
  9
$DIMGAP
 40
0.625
  9
$DIMJUST
 70
0
  9
$DIMSD1
 70
0
  9
$DIMSD2
 70
0
  9
$DIMTOLJ
 70
0
  9
$DIMTZIN
 70
8
  9
$DIMALTZ
 70
0
  9
$DIMALTTZ
 70
0
  9
$DIMUPT
 70
0
  9
$DIMDEC
 70
2
  9
$DIMTDEC
 70
2
  9
$DIMALTU
 70
2
  9
$DIMALTTD
 70
3
  9
$DIMTXSTY
  7
Standard
  9
$DIMAUNIT
 70
0
  9
$DIMADEC
 70
0
  9
$DIMALTRND
 40
0.0
  9
$DIMAZIN
 70
0
  9
$DIMDSEP
 70
44
  9
$DIMATFIT
 70
3
  9
$DIMFRAC
 70
0
  9
$DIMLDRBLK
  1

  9
$DIMLUNIT
 70
2
  9
$DIMLWD
 70
-2
  9
$DIMLWE
 70
-2
  9
$DIMTMOVE
 70
0
  9
$DIMFXL
 40
1.0
  9
$DIMFXLON
 70
0
  9
$DIMJOGANG
 40
0.785398163397
  9
$DIMTFILL
 70
0
  9
$DIMTFILLCLR
 70
0
  9
$DIMARCSYM
 70
0
  9
$DIMLTYPE
  6

  9
$DIMLTEX1
  6

  9
$DIMLTEX2
  6

  9
$DIMTXTDIRECTION
 70
0
  9
$LUNITS
 70
2
  9
$LUPREC
 70
4
  9
$SKETCHINC
 40
1.0
  9
$FILLETRAD
 40
10.0
  9
$AUNITS
 70
0
  9
$AUPREC
 70
2
  9
$MENU
  1
.
  9
$ELEVATION
 40
0.0
  9
$PELEVATION
 40
0.0
  9
$THICKNESS
 40
0.0
  9
$LIMCHECK
 70
0
  9
$CHAMFERA
 40
0.0
  9
$CHAMFERB
 40
0.0
  9
$CHAMFERC
 40
0.0
  9
$CHAMFERD
 40
0.0
  9
$SKPOLY
 70
0
  9
$TDCREATE
 40
2461032.374641204
  9
$TDUCREATE
 40
2458532.153996898
  9
$TDUPDATE
 40
2461032.374641204
  9
$TDUUPDATE
 40
2458532.1544311
  9
$TDINDWG
 40
0.0
  9
$TDUSRTIMER
 40
0.0
  9
$USRTIMER
 70
1
  9
$ANGBASE
 50
0.0
  9
$ANGDIR
 70
0
  9
$PDMODE
 70
0
  9
$PDSIZE
 40
0.0
  9
$PLINEWID
 40
0.0
  9
$SPLFRAME
 70
0
  9
$SPLINETYPE
 70
6
  9
$SPLINESEGS
 70
8
  9
$HANDSEED
  5
42
  9
$SURFTAB1
 70
6
  9
$SURFTAB2
 70
6
  9
$SURFTYPE
 70
6
  9
$SURFU
 70
6
  9
$SURFV
 70
6
  9
$UCSBASE
  2

  9
$UCSNAME
  2

  9
$UCSORG
 10
0.0
 20
0.0
 30
0.0
  9
$UCSXDIR
 10
1.0
 20
0.0
 30
0.0
  9
$UCSYDIR
 10
0.0
 20
1.0
 30
0.0
  9
$UCSORTHOREF
  2

  9
$UCSORTHOVIEW
 70
0
  9
$UCSORGTOP
 10
0.0
 20
0.0
 30
0.0
  9
$UCSORGBOTTOM
 10
0.0
 20
0.0
 30
0.0
  9
$UCSORGLEFT
 10
0.0
 20
0.0
 30
0.0
  9
$UCSORGRIGHT
 10
0.0
 20
0.0
 30
0.0
  9
$UCSORGFRONT
 10
0.0
 20
0.0
 30
0.0
  9
$UCSORGBACK
 10
0.0
 20
0.0
 30
0.0
  9
$PUCSBASE
  2

  9
$PUCSNAME
  2

  9
$PUCSORG
 10
0.0
 20
0.0
 30
0.0
  9
$PUCSXDIR
 10
1.0
 20
0.0
 30
0.0
  9
$PUCSYDIR
 10
0.0
 20
1.0
 30
0.0
  9
$PUCSORTHOREF
  2

  9
$PUCSORTHOVIEW
 70
0
  9
$PUCSORGTOP
 10
0.0
 20
0.0
 30
0.0
  9
$PUCSORGBOTTOM
 10
0.0
 20
0.0
 30
0.0
  9
$PUCSORGLEFT
 10
0.0
 20
0.0
 30
0.0
  9
$PUCSORGRIGHT
 10
0.0
 20
0.0
 30
0.0
  9
$PUCSORGFRONT
 10
0.0
 20
0.0
 30
0.0
  9
$PUCSORGBACK
 10
0.0
 20
0.0
 30
0.0
  9
$USERI1
 70
0
  9
$USERI2
 70
0
  9
$USERI3
 70
0
  9
$USERI4
 70
0
  9
$USERI5
 70
0
  9
$USERR1
 40
0.0
  9
$USERR2
 40
0.0
  9
$USERR3
 40
0.0
  9
$USERR4
 40
0.0
  9
$USERR5
 40
0.0
  9
$WORLDVIEW
 70
1
  9
$SHADEDGE
 70
3
  9
$SHADEDIF
 70
70
  9
$TILEMODE
 70
1
  9
$MAXACTVP
 70
64
  9
$PINSBASE
 10
0.0
 20
0.0
 30
0.0
  9
$PLIMCHECK
 70
0
  9
$PEXTMIN
 10
1e+20
 20
1e+20
 30
1e+20
  9
$PEXTMAX
 10
-1e+20
 20
-1e+20
 30
-1e+20
  9
$PLIMMIN
 10
0.0
 20
0.0
  9
$PLIMMAX
 10
420.0
 20
297.0
  9
$UNITMODE
 70
0
  9
$VISRETAIN
 70
1
  9
$PLINEGEN
 70
0
  9
$PSLTSCALE
 70
1
  9
$TREEDEPTH
 70
3020
  9
$CMLSTYLE
  2
Standard
  9
$CMLJUST
 70
0
  9
$CMLSCALE
 40
20.0
  9
$PROXYGRAPHICS
 70
1
  9
$MEASUREMENT
 70
1
  9
$CELWEIGHT
370
-1
  9
$ENDCAPS
280
0
  9
$JOINSTYLE
280
0
  9
$LWDISPLAY
290
0
  9
$INSUNITS
 70
4
  9
$HYPERLINKBASE
  1

  9
$STYLESHEET
  1

  9
$XEDIT
290
1
  9
$CEPSNTYPE
380
0
  9
$PSTYLEMODE
290
1
  9
$FINGERPRINTGUID
  2
{E4007F7D-D87C-4417-91ED-D5359EE54CB6}
  9
$VERSIONGUID
  2
{F4080685-DB74-4F55-AD31-5D21D9ABCFDD}
  9
$EXTNAMES
290
1
  9
$PSVPSCALE
 40
0.0
  9
$OLESTARTUP
290
0
  9
$SORTENTS
280
127
  9
$INDEXCTL
280
0
  9
$HIDETEXT
280
1
  9
$XCLIPFRAME
280
1
  9
$HALOGAP
280
0
  9
$OBSCOLOR
 70
257
  9
$OBSLTYPE
280
0
  9
$INTERSECTIONDISPLAY
280
0
  9
$INTERSECTIONCOLOR
 70
257
  9
$DIMASSOC
280
2
  9
$PROJECTNAME
  1

  9
$CAMERADISPLAY
290
0
  9
$LENSLENGTH
 40
50.0
  9
$CAMERAHEIGHT
 40
0.0
  9
$STEPSPERSEC
 40
24.0
  9
$STEPSIZE
 40
100.0
  9
$3DDWFPREC
 40
2.0
  9
$PSOLWIDTH
 40
0.005
  9
$PSOLHEIGHT
 40
0.08
  9
$LOFTANG1
 40
1.570796326795
  9
$LOFTANG2
 40
1.570796326795
  9
$LOFTMAG1
 40
0.0
  9
$LOFTMAG2
 40
0.0
  9
$LOFTPARAM
 70
7
  9
$LOFTNORMALS
280
1
  9
$LATITUDE
 40
37.795
  9
$LONGITUDE
 40
-122.394
  9
$NORTHDIRECTION
 40
0.0
  9
$TIMEZONE
 70
-8000
  9
$LIGHTGLYPHDISPLAY
280
1
  9
$TILEMODELIGHTSYNCH
280
1
  9
$CMATERIAL
347
20
  9
$SOLIDHIST
280
0
  9
$SHOWHIST
280
1
  9
$DWFFRAME
280
2
  9
$DGNFRAME
280
2
  9
$REALWORLDSCALE
290
1
  9
$INTERFERECOLOR
 62
256
  9
$CSHADOW
280
0
  9
$SHADOWPLANELOCATION
 40
0.0
  0
ENDSEC
  0
SECTION
  2
CLASSES
  0
CLASS
  1
ACDBDICTIONARYWDFLT
  2
AcDbDictionaryWithDefault
  3
ObjectDBX Classes
 90
0
 91
0
280
0
281
0
  0
CLASS
  1
SUN
  2
AcDbSun
  3
SCENEOE
 90
1153
 91
0
280
0
281
0
  0
CLASS
  1
VISUALSTYLE
  2
AcDbVisualStyle
  3
ObjectDBX Classes
 90
4095
 91
0
280
0
281
0
  0
CLASS
  1
MATERIAL
  2
AcDbMaterial
  3
ObjectDBX Classes
 90
1153
 91
0
280
0
281
0
  0
CLASS
  1
SCALE
  2
AcDbScale
  3
ObjectDBX Classes
 90
1153
 91
0
280
0
281
0
  0
CLASS
  1
TABLESTYLE
  2
AcDbTableStyle
  3
ObjectDBX Classes
 90
4095
 91
0
280
0
281
0
  0
CLASS
  1
MLEADERSTYLE
  2
AcDbMLeaderStyle
  3
ACDB_MLEADERSTYLE_CLASS
 90
4095
 91
0
280
0
281
0
  0
CLASS
  1
DICTIONARYVAR
  2
AcDbDictionaryVar
  3
ObjectDBX Classes
 90
0
 91
0
280
0
281
0
  0
CLASS
  1
CELLSTYLEMAP
  2
AcDbCellStyleMap
  3
ObjectDBX Classes
 90
1152
 91
0
280
0
281
0
  0
CLASS
  1
MENTALRAYRENDERSETTINGS
  2
AcDbMentalRayRenderSettings
  3
SCENEOE
 90
1024
 91
0
280
0
281
0
  0
CLASS
  1
ACDBDETAILVIEWSTYLE
  2
AcDbDetailViewStyle
  3
ObjectDBX Classes
 90
1025
 91
0
280
0
281
0
  0
CLASS
  1
ACDBSECTIONVIEWSTYLE
  2
AcDbSectionViewStyle
  3
ObjectDBX Classes
 90
1025
 91
0
280
0
281
0
  0
CLASS
  1
RASTERVARIABLES
  2
AcDbRasterVariables
  3
ISM
 90
0
 91
0
280
0
281
0
  0
CLASS
  1
ACDBPLACEHOLDER
  2
AcDbPlaceHolder
  3
ObjectDBX Classes
 90
0
 91
0
280
0
281
0
  0
CLASS
  1
LAYOUT
  2
AcDbLayout
  3
ObjectDBX Classes
 90
0
 91
0
280
0
281
0
  0
ENDSEC
  0
SECTION
  2
TABLES
  0
TABLE
  2
VPORT
  5
8
330
0
100
AcDbSymbolTable
 70
1
  0
VPORT
  5
23
330
8
100
AcDbSymbolTableRecord
100
AcDbViewportTableRecord
  2
*Active
 70
0
 10
0.0
 20
0.0
 11
1.0
 21
1.0
 12
0.0
 22
0.0
 13
0.0
 23
0.0
 14
0.5
 24
0.5
 15
0.5
 25
0.5
 16
0.0
 26
0.0
 36
1.0
 17
0.0
 27
0.0
 37
0.0
 40
1000.0
 41
1.34
 42
50.0
 43
0.0
 44
0.0
 50
0.0
 51
0.0
 71
0
 72
1000
 73
1
 74
3
 75
0
 76
0
 77
0
 78
0
281
0
 65
0
146
0.0
  0
ENDTAB
  0
TABLE
  2
LTYPE
  5
2
330
0
100
AcDbSymbolTable
 70
3
  0
LTYPE
  5
24
330
2
100
AcDbSymbolTableRecord
100
AcDbLinetypeTableRecord
  2
ByBlock
 70
0
  3

 72
65
 73
0
 40
0.0
  0
LTYPE
  5
25
330
2
100
AcDbSymbolTableRecord
100
AcDbLinetypeTableRecord
  2
ByLayer
 70
0
  3

 72
65
 73
0
 40
0.0
  0
LTYPE
  5
26
330
2
100
AcDbSymbolTableRecord
100
AcDbLinetypeTableRecord
  2
Continuous
 70
0
  3

 72
65
 73
0
 40
0.0
  0
ENDTAB
  0
TABLE
  2
LAYER
  5
1
330
0
100
AcDbSymbolTable
 70
3
  0
LAYER
  5
27
330
1
100
AcDbSymbolTableRecord
100
AcDbLayerTableRecord
  2
0
 70
0
 62
7
  6
Continuous
370
-3
390
13
347
21
  0
LAYER
  5
28
330
1
100
AcDbSymbolTableRecord
100
AcDbLayerTableRecord
  2
Defpoints
 70
0
 62
7
  6
Continuous
290
0
370
-3
390
13
347
21
  0
LAYER
  5
2F
330
1
100
AcDbSymbolTableRecord
100
AcDbLayerTableRecord
  2
ROADS
 70
0
 62
7
  6
Continuous
370
-3
390
13
347
21
  0
ENDTAB
  0
TABLE
  2
STYLE
  5
5
330
0
100
AcDbSymbolTable
 70
1
  0
STYLE
  5
29
330
5
100
AcDbSymbolTableRecord
100
AcDbTextStyleTableRecord
  2
Standard
 70
0
 40
0.0
 41
1.0
 50
0.0
 71
0
 42
2.5
  3
txt
  4

  0
ENDTAB
  0
TABLE
  2
VIEW
  5
7
330
0
100
AcDbSymbolTable
 70
0
  0
ENDTAB
  0
TABLE
  2
UCS
  5
6
330
0
100
AcDbSymbolTable
 70
0
  0
ENDTAB
  0
TABLE
  2
APPID
  5
3
330
0
100
AcDbSymbolTable
 70
3
  0
APPID
  5
2A
330
3
100
AcDbSymbolTableRecord
100
AcDbRegAppTableRecord
  2
ACAD
 70
0
  0
APPID
  5
3F
330
3
100
AcDbSymbolTableRecord
100
AcDbRegAppTableRecord
  2
HATCHBACKGROUNDCOLOR
 70
0
  0
APPID
  5
40
330
3
100
AcDbSymbolTableRecord
100
AcDbRegAppTableRecord
  2
EZDXF
 70
0
  0
ENDTAB
  0
TABLE
  2
DIMSTYLE
  5
4
330
0
100
AcDbSymbolTable
 70
1
100
AcDbDimStyleTable
  0
DIMSTYLE
105
2B
330
4
100
AcDbSymbolTableRecord
100
AcDbDimStyleTableRecord
  2
Standard
 70
0
 40
1.0
 41
2.5
 42
0.625
 43
3.75
 44
1.25
 45
0.0
 46
0.0
 47
0.0
 48
0.0
 49
2.5
140
2.5
141
2.5
142
0.0
143
0.03937007874
144
1.0
145
0.0
146
1.0
147
0.625
148
0.0
 69
0
 70
0
 71
0
 72
0
 73
0
 74
0
 75
0
 76
0
 77
1
 78
8
 79
3
170
0
171
3
172
1
173
0
174
0
175
0
176
0
177
0
178
0
179
2
271
2
272
2
273
2
274
3
275
0
276
0
277
2
278
44
279
0
280
0
281
0
282
0
283
0
284
8
285
0
286
0
288
0
289
3
290
0
371
-2
372
-2
  0
ENDTAB
  0
TABLE
  2
BLOCK_RECORD
  5
9
330
0
100
AcDbSymbolTable
 70
2
  0
BLOCK_RECORD
  5
17
330
9
100
AcDbSymbolTableRecord
100
AcDbBlockTableRecord
  2
*Model_Space
340
1A
 70
0
280
1
281
0
  0
BLOCK_RECORD
  5
1B
330
9
100
AcDbSymbolTableRecord
100
AcDbBlockTableRecord
  2
*Paper_Space
340
1E
 70
0
280
1
281
0
  0
ENDTAB
  0
ENDSEC
  0
SECTION
  2
BLOCKS
  0
BLOCK
  5
18
330
17
100
AcDbEntity
  8
0
100
AcDbBlockBegin
  2
*Model_Space
 70
0
 10
0.0
 20
0.0
 30
0.0
  3
*Model_Space
  1

  0
ENDBLK
  5
19
330
17
100
AcDbEntity
  8
0
100
AcDbBlockEnd
  0
BLOCK
  5
1C
330
1B
100
AcDbEntity
  8
0
100
AcDbBlockBegin
  2
*Paper_Space
 70
0
 10
0.0
 20
0.0
 30
0.0
  3
*Paper_Space
  1

  0
ENDBLK
  5
1D
330
1B
100
AcDbEntity
  8
0
100
AcDbBlockEnd
  0
ENDSEC
  0
SECTION
  2
ENTITIES
  0
LWPOLYLINE
  5
30
330
17
100
AcDbEntity
  8
ROADS
100
AcDbPolyline
 90
16
 70
0
 10
54.55090307382662
 20
26.586233464848167
 10
50.875596400923136
 20
27.174116093246678
 10
49.842572918303986
 20
27.423470803584802
 10
48.86057035140102
 20
27.998968264222928
 10
48.212904844267015
 20
28.834554247301202
 10
48.05564037455237
 20
30.140776604218225
 10
47.894174182356934
 20
31.467640907363453
 10
47.50821596075436
 20
34.04045308439946
 10
47.15407078073106
 20
35.28722663620742
 10
46.541819791624974
 20
36.470422993613745
 10
45.720683170970624
 20
37.58921647881858
 10
44.567010228728996
 20
38.401683482093105
 10
44.368328780323964
 20
38.99534585544256
 10
44.320309094853705
 20
39.58653119521646
 10
44.1594431486904
 20
41.99998754749512
 10
43.90974078448387
 20
45.90461809476877
  0
LWPOLYLINE
  5
31
330
17
100
AcDbEntity
  8
ROADS
100
AcDbPolyline
 90
6
 70
0
 10
38.66058892194312
 20
139.98648058382025
 10
39.32085959651947
 20
140.96903722395416
 10
41.541770047173316
 20
143.69377412519688
 10
42.045976744099264
 20
145.36990015838717
 10
42.646222811880435
 20
147.02125585611537
 10
44.241528140258865
 20
150.00000000000003
  0
LWPOLYLINE
  5
32
330
17
100
AcDbEntity
  8
ROADS
100
AcDbPolyline
 90
54
 70
0
 10
39.92110566421534
 20
9.174338987944818
 10
40.35328283302119
 20
9.322961000776143
 10
42.26926828135685
 20
9.985154635560983
 10
43.97276662161028
 20
10.858721799661604
 10
45.37734242020798
 20
11.907332667714021
 10
46.57783455568502
 20
13.178876554925424
 10
51.71173917331893
 20
21.413361741679836
 10
53.5604970619621
 20
24.469195460373644
 10
54.55090307382662
 20
26.586233464848167
 10
55.119336099943226
 20
28.049334613005662
 10
55.479483740628986
 20
29.76674453865237
 10
55.50349358336412
 20
33.24284828240219
 10
54.77599534918058
 20
42.05283092979473
 10
54.36422654674651
 20
50.96684898612813
 10
53.807198195837394
 20
53.40259864029335
 10
52.93444041334942
 20
55.8028441469531
 10
52.207542425283314
 20
57.888506393214726
 10
51.35819423932775
 20
61.105347292382916
 10
50.605485670430134
 20
65.06777528910727
 10
50.1853134229492
 20
68.00388571966577
 10
49.50103290572302
 20
80.38079667413008
 10
49.61027769005271
 20
82.69682304021866
 10
49.92900835204809
 20
85.01202372844874
 10
50.98364069310327
 20
89.41371234074028
 10
52.93504065938155
 20
92.38945530803815
 10
60.03955311743066
 20
100.38449391863928
 10
61.64281036434809
 20
101.5602591754363
 10
62.80908847403206
 20
101.92355742890014
 10
64.48017352667411
 20
102.17786620638935
 10
66.25510114910081
 20
101.73034881229567
 10
68.16988610520161
 20
100.61485803846624
 10
70.3475788390687
 20
99.67275961293022
 10
71.4610352947695
 20
99.55386200265343
 10
73.35961360706462
 20
99.48285370770115
 10
74.87223369784245
 20
99.87752771943654
 10
76.78821914617811
 20
100.5851336359117
 10
79.90349623784125
 20
102.20346221970998
 10
81.19882725202396
 20
102.63529173466786
 10
83.703654092848
 20
103.42546543599715
 10
85.22767885883333
 20
104.11077805058575
 10
86.55422266864848
 20
105.20892958956239
 10
96.96849194428498
 20
119.44361570403692
 10
99.68160417053986
 20
121.74725690236511
 10
101.23023902537774
 20
122.63898897911838
 10
103.94095026741883
 20
123.76603924284971
 10
106.17626662369669
 20
124.69492682282548
 10
106.97459389385077
 20
125.15400370676235
 10
108.87737392862665
 20
126.24720117864658
 10
110.46202354752458
 20
127.47746117346024
 10
120.84027805910104
 20
137.0470674418277
 10
123.27727709428576
 20
139.61492555182994
 10
125.93756766655748
 20
143.22066071778258
 10
126.99880271439254
 20
144.65981720839514
 10
130.96639635220615
 20
150.00000000000003
  0
LWPOLYLINE
  5
33
330
17
100
AcDbEntity
  8
ROADS
100
AcDbPolyline
 90
28
 70
0
 10
38.66058892194312
 20
139.98648058382025
 10
36.63775967357688
 20
139.03695105761628
 10
35.81542256077297
 20
138.51677401279463
 10
35.14914942553417
 20
138.0956783098801
 10
33.810600694394104
 20
136.95624287844706
 10
31.595692704402712
 20
134.19847886321574
 10
30.64130145668354
 20
132.69574517831887
 10
29.632888062831647
 20
131.24255216428756
 10
28.540440219449444
 20
129.83889982123912
 10
27.71810310664554
 20
128.95542452295368
 10
27.099849656876998
 20
128.15451700952235
 10
25.491190195243934
 20
124.59584548091838
 10
24.920956430860354
 20
122.92797622619588
 10
24.572813711584807
 20
121.20230952208136
 10
23.948557801153807
 20
119.54269704588536
 10
21.811681799859667
 20
116.69410846727342
 10
20.857290552140494
 20
115.19137478237654
 10
19.572763967133145
 20
113.98588512302499
 10
18.492321045161162
 20
112.56571922298227
 10
15.299011964715467
 20
111.07124231649453
 10
13.75637957054004
 20
110.2785915815897
 10
12.26776932249733
 20
109.32906205538572
 10
10.52105326528654
 20
108.98227735885752
 10
8.762332286750835
 20
108.8914527954769
 10
7.009613768877588
 20
109.09787225770026
 10
5.274902633077014
 20
109.48594084668485
 10
3.5221841152037663
 20
109.79969842928314
 10
2.3457018223765576
 20
109.96483399905009
  0
LWPOLYLINE
  5
34
330
17
100
AcDbEntity
  8
ROADS
100
AcDbPolyline
 90
31
 70
0
 10
49.92900835204809
 20
85.01202372844874
 10
48.210503860053215
 20
86.87888134472661
 10
47.56223810688709
 20
87.68804563662574
 10
47.112053556008554
 20
88.24124979537731
 10
45.97758848798915
 20
89.38894200527817
 10
43.28248364372165
 20
91.560474747828
 10
40.653405866911775
 20
93.8310888321676
 10
38.75062583213589
 20
95.23474117527469
 10
38.54053970835277
 20
95.41639030203595
 10
37.418079561658274
 20
96.34940627124563
 10
36.13355297665093
 20
97.5301255950764
 10
34.9750780658964
 20
98.867723710265
 10
34.4348566049104
 20
100.51082262952538
 10
34.28479508800776
 20
102.25300289063419
 10
34.20676309913991
 20
104.00343993021083
 10
34.026689278839676
 20
105.74562019131965
 10
33.78659085174427
 20
107.47128689543416
 10
33.47446289652877
 20
110.9886745316404
 10
33.240366930095824
 20
112.72259801422274
 10
32.916234053470106
 20
114.45652149686374
 10
32.70014546910983
 20
116.20695853644037
 10
32.77217499722992
 20
117.9656523545435
 10
33.01827588498779
 20
119.6995758371845
 10
33.738571166274006
 20
123.13439568841925
 10
34.164745874417406
 20
124.84354883559814
 10
34.68695995333073
 20
126.51967486878844
 10
35.90545947088044
 20
129.80587270725053
 10
36.96189255020259
 20
133.17463833062544
 10
37.95229856198181
 20
136.56817428946246
 10
38.516529865702935
 20
138.88007226631714
 10
38.66058892194312
 20
139.98648058382025
  0
LWPOLYLINE
  5
35
330
17
100
AcDbEntity
  8
ROADS
100
AcDbPolyline
 90
16
 70
0
 10
76.78821914617811
 20
100.5851336359117
 10
76.5481207189974
 20
99.88330746438749
 10
76.34403705596203
 20
99.297076191706
 10
76.04991648281921
 20
98.43011445035617
 10
75.20356952728018
 20
96.89435365147071
 10
74.32120780768109
 20
95.37510640957954
 10
73.70895681848971
 20
93.74026426878697
 10
73.18074027891393
 20
92.05588145712885
 10
72.26836625591726
 20
88.63757516282973
 10
71.59008819935354
 20
86.99447624356935
 10
70.97783721024746
 20
85.36789088130327
 10
70.91781260345228
 20
83.62571062019444
 10
71.09788642375251
 20
81.90830069454773
 10
71.98024814335159
 20
80.4468509020486
 10
73.43884608799671
 20
79.58814593922524
 10
73.99707493105538
 20
79.38998325552836
  0
LWPOLYLINE
  5
36
330
17
100
AcDbEntity
  8
ROADS
100
AcDbPolyline
 90
19
 70
0
 10
38.75062583213589
 20
95.23474117527469
 10
38.50572543644227
 20
93.41907558557939
 10
37.93128994957791
 20
91.3524039298876
 10
37.18998605597309
 20
88.9100488529716
 10
36.589739988191916
 20
86.39998819242005
 10
36.18997610708276
 20
83.65378366709061
 10
35.65695759890877
 20
82.22618666637992
 10
34.24637933964861
 20
81.00418345003406
 10
33.3634173739321
 20
80.27428423167235
 10
32.925837990581215
 20
78.4445821185583
 10
32.76317130615094
 20
74.68196816130651
 10
32.212145415989575
 20
70.40908529341795
 10
32.16052425415596
 20
68.3597528725203
 10
31.682128138146822
 20
66.31454884085656
 10
30.293758983440117
 20
62.220012388353844
 10
28.806949473579085
 20
59.847014250731746
 10
27.60585709198462
 20
55.33055641739732
 10
26.709689712793647
 20
50.571349296534216
 10
26.317128784496493
 20
43.89161549923511
  0
LWPOLYLINE
  5
37
330
17
100
AcDbEntity
  8
ROADS
100
AcDbPolyline
 90
17
 70
0
 10
27.099849656876998
 20
128.15451700952235
 10
26.2054830158677
 20
128.42699069966423
 10
25.01099334105312
 20
129.57468290962373
 10
24.464769419404668
 20
131.22603860735194
 10
23.588410160468044
 20
132.91042141901005
 10
22.832100115121776
 20
134.3553576545149
 10
22.165826979882972
 20
135.99019979530746
 10
21.69763504701707
 20
137.69935294242768
 10
21.33148494566885
 20
139.4002493110801
 10
21.193428350091125
 20
140.38280595127267
 10
21.091386518573444
 20
141.14242957218892
 10
21.427524316524075
 20
142.8020420484436
 10
21.703637507679527
 20
144.4946816386282
 10
21.547573530114427
 20
146.23686189973702
 10
21.715642429004443
 20
147.97078538231935
 10
22.13581467648538
 20
149.67168175097177
 10
22.223829859233046
 20
150.00000000000003
  0
LWPOLYLINE
  5
38
330
17
100
AcDbEntity
  8
ROADS
100
AcDbPolyline
 90
38
 70
0
 10
103.07815429817084
 20
0.0
 10
103.09100183543113
 20
0.017571644024081793
 10
104.22546690353583
 20
1.3716833161482949
 10
105.46797626373538
 20
2.6432272034183653
 10
108.22910817546052
 20
4.889070952354524
 10
109.48362245707028
 20
6.160614839565928
 10
110.37798909807958
 20
7.6716053029892795
 10
111.08627945804089
 20
9.273420329793256
 10
112.62891185213101
 20
12.468793604933394
 10
113.50527111106764
 20
13.99629762535104
 10
114.47766974085948
 20
15.474260974785802
 10
115.55811266283146
 20
16.89442687482853
 10
116.81862940510368
 20
18.11643009117438
 10
116.90566508496522
 20
18.170924829191023
 10
118.32524703521906
 20
19.057702838851878
 10
119.909896654117
 20
19.850353573815386
 10
121.33848229536453
 20
20.874194106405692
 10
122.67102856584214
 20
22.038399873300843
 10
123.87152070131918
 20
23.334714096033025
 10
124.80190210638852
 20
24.829191002462082
 10
125.55220969107233
 20
26.41449247227176
 10
126.38655172528645
 20
27.958510049625037
 10
127.50300941131849
 20
29.329135278743546
 10
128.89558028850598
 20
30.42728681777885
 10
129.98802813180288
 20
30.954894963209785
 10
130.48623236806637
 20
31.19516721722158
 10
132.16091889715705
 20
31.707087483516734
 10
133.9016324936201
 20
31.95479083813783
 10
135.6303411687582
 20
32.25203486374181
 10
137.28702031577623
 20
32.821752579487665
 10
138.88967731674683
 20
33.52357875101188
 10
142.00495440841
 20
35.12539377781586
 10
143.58360156664546
 20
35.83547672780789
 10
145.282297938386
 20
36.45473511447796
 10
146.8969598606815
 20
37.15656128600218
 10
148.43358979410917
 20
38.03177980581983
 10
149.8741803567669
 20
39.072133895404434
 10
150.0
 20
39.177049934761605
  0
LWPOLYLINE
  5
39
330
17
100
AcDbEntity
  8
ROADS
100
AcDbPolyline
 90
4
 70
0
 10
38.609602798345044
 20
0.0
 10
40.79746492315196
 20
3.7000948499972646
 10
41.409715912258044
 20
4.682651490131167
 10
42.256062867797084
 20
6.507399536094129
  0
LWPOLYLINE
  5
3A
330
17
100
AcDbEntity
  8
ROADS
100
AcDbPolyline
 90
5
 70
0
 10
126.99880271439254
 20
144.65981720839514
 10
126.10443607338324
 20
147.43409478056208
 10
125.85833518562538
 20
148.63958443991365
 10
125.7562933541077
 20
149.143247927741
 10
125.69226346327726
 20
150.00000000000003
  0
LWPOLYLINE
  5
3B
330
17
100
AcDbEntity
  8
ROADS
100
AcDbPolyline
 90
8
 70
0
 10
106.97459389385077
 20
125.15400370676235
 10
107.08864064669336
 20
124.45713160233056
 10
107.02261357923572
 20
123.40026395575167
 10
105.73328502571547
 20
117.69483002011864
 10
104.85512502859717
 20
114.11469086742797
 10
103.97696503147887
 20
110.59812890908024
 10
103.89112984376689
 20
108.39934879755143
 10
103.89052959773475
 20
105.79433518438535
  0
LWPOLYLINE
  5
3C
330
17
100
AcDbEntity
  8
ROADS
100
AcDbPolyline
 90
29
 70
0
 10
125.93756766655748
 20
143.22066071778258
 10
127.12185315822882
 20
142.64764029072
 10
127.97480282054774
 20
142.12003214528906
 10
128.73171311201145
 20
141.49664536938508
 10
129.11827157964612
 20
140.8897721504754
 10
129.4081904303935
 20
140.2028081801698
 10
129.81035529580174
 20
139.43575345858557
 10
130.39019299721113
 20
138.60429586479987
 10
130.9856370964794
 20
137.91733189455292
 10
131.95203326552348
 20
137.40623730611628
 10
133.0306754493138
 20
137.11890141469715
 10
135.10752684372747
 20
136.94303203288683
 10
136.44367459056843
 20
136.73496121494645
 10
137.42567715747137
 20
136.3997360083201
 10
138.03732790046004
 20
136.01579580862807
 10
138.40767972428904
 20
135.6648827228073
 10
138.6651852873397
 20
135.2173653287723
 10
138.73001186273308
 20
134.2422397892477
 10
138.73001186273308
 20
131.07824227237913
 10
138.77803154811804
 20
129.28899837386297
 10
138.95510413808705
 20
128.12231557345095
 10
139.2774362765311
 20
127.4031501670739
 10
140.22702555565206
 20
125.82115140863962
 10
140.5847722120387
 20
125.30097436387665
 10
141.579379946384
 20
123.8552124505133
 10
145.76549602290802
 20
117.4479523432974
 10
146.98879750905596
 20
115.6421948878456
 10
147.6328615397413
 20
114.98660667581156
 10
148.03562665118167
 20
114.77853585792984
  0
LWPOLYLINE
  5
3D
330
17
100
AcDbEntity
  8
ROADS
100
AcDbPolyline
 90
7
 70
0
 10
50.38088672451709
 20
0.0
 10
47.85635868002991
 20
2.0817662661989926
 10
45.04720708291981
 20
4.228528673228046
 10
42.256062867797084
 20
6.507399536094129
 10
40.85148706928468
 20
7.9605925501254475
 10
40.41330743981637
 20
8.365174696045681
 10
39.92110566421534
 20
9.174338987944818
  0
LWPOLYLINE
  5
3E
330
17
100
AcDbEntity
  8
ROADS
100
AcDbPolyline
 90
16
 70
0
 10
6.483339685319918
 20
0.0
 10
7.1896875892631185
 20
0.8349927143910315
 10
9.152492230834186
 20
2.4202941842007117
 10
11.69753555811375
 20
3.675324514476487
 10
13.996477997635447
 20
4.154217666841717
 10
16.929880530816682
 20
3.971742862221954
 10
19.14058679832729
 20
3.563858004926328
 10
21.085384057910986
 20
3.41936438132891
 10
22.805689288087542
 20
3.3087235495785983
 10
24.578816172247265
 20
3.567986394160235
 10
26.55302548911112
 20
3.9890820970747645
 10
28.47441315207711
 20
4.831273502903824
 10
32.952248817530155
 20
7.688118859983575
 10
35.15515188619663
 20
8.604621272257631
 10
37.556136157236004
 20
9.100027981558489
 10
39.92110566421534
 20
9.174338987944818
  0
ENDSEC
  0
SECTION
  2
OBJECTS
  0
DICTIONARY
  5
A
330
0
100
AcDbDictionary
281
1
  3
ACAD_COLOR
350
B
  3
ACAD_GROUP
350
C
  3
ACAD_LAYOUT
350
D
  3
ACAD_MATERIAL
350
E
  3
ACAD_MLEADERSTYLE
350
F
  3
ACAD_MLINESTYLE
350
10
  3
ACAD_PLOTSETTINGS
350
11
  3
ACAD_PLOTSTYLENAME
350
12
  3
ACAD_SCALELIST
350
14
  3
ACAD_TABLESTYLE
350
15
  3
ACAD_VISUALSTYLE
350
16
  3
EZDXF_META
350
2D
  0
DICTIONARY
  5
B
330
A
100
AcDbDictionary
281
1
  0
DICTIONARY
  5
C
330
A
100
AcDbDictionary
281
1
  0
DICTIONARY
  5
D
330
A
100
AcDbDictionary
281
1
  3
Model
350
1A
  3
Layout1
350
1E
  0
DICTIONARY
  5
E
330
A
100
AcDbDictionary
281
1
  3
ByBlock
350
1F
  3
ByLayer
350
20
  3
Global
350
21
  0
DICTIONARY
  5
F
330
A
100
AcDbDictionary
281
1
  3
Standard
350
2C
  0
DICTIONARY
  5
10
330
A
100
AcDbDictionary
281
1
  3
Standard
350
22
  0
DICTIONARY
  5
11
330
A
100
AcDbDictionary
281
1
  0
ACDBDICTIONARYWDFLT
  5
12
330
A
100
AcDbDictionary
281
1
  3
Normal
350
13
100
AcDbDictionaryWithDefault
340
13
  0
ACDBPLACEHOLDER
  5
13
330
12
  0
DICTIONARY
  5
14
330
A
100
AcDbDictionary
281
1
  0
DICTIONARY
  5
15
330
A
100
AcDbDictionary
281
1
  0
DICTIONARY
  5
16
330
A
100
AcDbDictionary
281
1
  0
LAYOUT
  5
1A
330
D
100
AcDbPlotSettings
  1

  4
A3
  6

 40
7.5
 41
20.0
 42
7.5
 43
20.0
 44
420.0
 45
297.0
 46
0.0
 47
0.0
 48
0.0
 49
0.0
140
0.0
141
0.0
142
1.0
143
1.0
 70
1024
 72
1
 73
0
 74
5
  7

 75
16
 76
0
 77
2
 78
300
147
1.0
148
0.0
149
0.0
100
AcDbLayout
  1
Model
 70
1
 71
0
 10
0.0
 20
0.0
 11
420.0
 21
297.0
 12
0.0
 22
0.0
 32
0.0
 14
1e+20
 24
1e+20
 34
1e+20
 15
-1e+20
 25
-1e+20
 35
-1e+20
146
0.0
 13
0.0
 23
0.0
 33
0.0
 16
1.0
 26
0.0
 36
0.0
 17
0.0
 27
1.0
 37
0.0
 76
1
330
17
  0
LAYOUT
  5
1E
330
D
100
AcDbPlotSettings
  1

  4
A3
  6

 40
7.5
 41
20.0
 42
7.5
 43
20.0
 44
420.0
 45
297.0
 46
0.0
 47
0.0
 48
0.0
 49
0.0
140
0.0
141
0.0
142
1.0
143
1.0
 70
0
 72
1
 73
0
 74
5
  7

 75
16
 76
0
 77
2
 78
300
147
1.0
148
0.0
149
0.0
100
AcDbLayout
  1
Layout1
 70
1
 71
1
 10
0.0
 20
0.0
 11
420.0
 21
297.0
 12
0.0
 22
0.0
 32
0.0
 14
1e+20
 24
1e+20
 34
1e+20
 15
-1e+20
 25
-1e+20
 35
-1e+20
146
0.0
 13
0.0
 23
0.0
 33
0.0
 16
1.0
 26
0.0
 36
0.0
 17
0.0
 27
1.0
 37
0.0
 76
1
330
1B
  0
MATERIAL
  5
1F
102
{ACAD_REACTORS
330
E
102
}
330
E
100
AcDbMaterial
  1
ByBlock
  2

 70
0
 40
1.0
 71
1
 41
1.0
 91
-1023410177
 42
1.0
 72
1
  3

 73
1
 74
1
 75
1
 44
0.5
 73
0
 45
1.0
 46
1.0
 77
1
  4

 78
1
 79
1
170
1
 48
1.0
171
1
  6

172
1
173
1
174
1
140
1.0
141
1.0
175
1
  7

176
1
177
1
178
1
143
1.0
179
1
  8

270
1
271
1
272
1
145
1.0
146
1.0
273
1
  9

274
1
275
1
276
1
 42
1.0
 72
1
  3

 73
1
 74
1
 75
1
 94
63
  0
MATERIAL
  5
20
102
{ACAD_REACTORS
330
E
102
}
330
E
100
AcDbMaterial
  1
ByLayer
  2

 70
0
 40
1.0
 71
1
 41
1.0
 91
-1023410177
 42
1.0
 72
1
  3

 73
1
 74
1
 75
1
 44
0.5
 73
0
 45
1.0
 46
1.0
 77
1
  4

 78
1
 79
1
170
1
 48
1.0
171
1
  6

172
1
173
1
174
1
140
1.0
141
1.0
175
1
  7

176
1
177
1
178
1
143
1.0
179
1
  8

270
1
271
1
272
1
145
1.0
146
1.0
273
1
  9

274
1
275
1
276
1
 42
1.0
 72
1
  3

 73
1
 74
1
 75
1
 94
63
  0
MATERIAL
  5
21
102
{ACAD_REACTORS
330
E
102
}
330
E
100
AcDbMaterial
  1
Global
  2

 70
0
 40
1.0
 71
1
 41
1.0
 91
-1023410177
 42
1.0
 72
1
  3

 73
1
 74
1
 75
1
 44
0.5
 73
0
 45
1.0
 46
1.0
 77
1
  4

 78
1
 79
1
170
1
 48
1.0
171
1
  6

172
1
173
1
174
1
140
1.0
141
1.0
175
1
  7

176
1
177
1
178
1
143
1.0
179
1
  8

270
1
271
1
272
1
145
1.0
146
1.0
273
1
  9

274
1
275
1
276
1
 42
1.0
 72
1
  3

 73
1
 74
1
 75
1
 94
63
  0
MLINESTYLE
  5
22
102
{ACAD_REACTORS
330
10
102
}
330
10
100
AcDbMlineStyle
  2
Standard
 70
0
  3

 62
256
 51
90.0
 52
90.0
 71
2
 49
0.5
 62
256
  6
BYLAYER
 49
-0.5
 62
256
  6
BYLAYER
  0
MLEADERSTYLE
  5
2C
102
{ACAD_REACTORS
330
F
102
}
330
F
100
AcDbMLeaderStyle
179
2
170
2
171
1
172
0
 90
2
 40
0.0
 41
0.0
173
1
 91
-1056964608
 92
-2
290
1
 42
2.0
291
1
 43
8.0
  3
Standard
 44
4.0
300

342
29
174
1
175
1
176
0
178
1
 93
-1056964608
 45
4.0
292
0
297
0
 46
4.0
 94
-1056964608
 47
1.0
 49
1.0
140
1.0
294
1
141
0.0
177
0
142
1.0
295
0
296
0
143
3.75
271
0
272
9
273
9
  0
DICTIONARY
  5
2D
330
A
100
AcDbDictionary
280
1
281
1
  3
CREATED_BY_EZDXF
350
2E
  3
WRITTEN_BY_EZDXF
350
41
  0
DICTIONARYVAR
  5
2E
330
2D
100
DictionaryVariables
280
0
  1
1.4.3 @ 2025-12-22T13:59:29.866799+00:00
  0
DICTIONARYVAR
  5
41
330
2D
100
DictionaryVariables
280
0
  1
1.4.3 @ 2025-12-22T13:59:29.868856+00:00
  0
ENDSEC
  0
EOF
